<?xml version="1.0" encoding="UTF-8" standalone="no"?>
<!-- Created with Inkscape (http://www.inkscape.org/) -->

<svg
   width="114"
   height="38"
   viewBox="0 0 30.162499 10.054167"
   version="1.1"
   id="svg5"
   xml:space="preserve"
   sodipodi:docname="rdamviewerlogo.svg"
   inkscape:version="1.2.1 (9c6d41e410, 2022-07-14)"
   xmlns:inkscape="http://www.inkscape.org/namespaces/inkscape"
   xmlns:sodipodi="http://sodipodi.sourceforge.net/DTD/sodipodi-0.dtd"
   xmlns="http://www.w3.org/2000/svg"
   xmlns:svg="http://www.w3.org/2000/svg"><sodipodi:namedview
     id="namedview7"
     pagecolor="#ffffff"
     bordercolor="#000000"
     borderopacity="0.25"
     inkscape:showpageshadow="2"
     inkscape:pageopacity="0.0"
     inkscape:pagecheckerboard="0"
     inkscape:deskcolor="#d1d1d1"
     inkscape:document-units="mm"
     showgrid="false"
     inkscape:zoom="12.286644"
     inkscape:cx="19.818267"
     inkscape:cy="34.020681"
     inkscape:window-width="3840"
     inkscape:window-height="2097"
     inkscape:window-x="-8"
     inkscape:window-y="-8"
     inkscape:window-maximized="1"
     inkscape:current-layer="layer1" /><defs
     id="defs2" /><g
     inkscape:label="Laag 1"
     inkscape:groupmode="layer"
     id="layer1"><g
       id="g1335"><rect
         style="fill:#ffffff;fill-opacity:1;stroke-width:0.264583"
         id="rect1010"
         width="30.169445"
         height="10.056482"
         x="0"
         y="-0.021534223" /><path
         d="M 19.769839,0.76532912 C 20.27811,1.519914 20.321117,2.7944984 19.867584,3.6937448 19.726832,3.975248 19.414051,4.350586 19.163826,4.5343444 c -0.105564,0.082105 -0.191579,0.1603005 -0.191579,0.1798495 0,0.023459 0.289323,0.5395474 0.641202,1.1572907 0.351879,0.6138332 0.664661,1.1729307 0.699849,1.2393965 l 0.06255,0.1172926 -0.324511,0.00782 c -0.387067,0.00391 -0.758495,0.086015 -1.086915,0.2384952 -0.457442,0.2072174 -0.473081,0.1524817 0.226767,0.750676 0.82496,0.6998479 0.727217,0.6451111 0.946164,0.5434574 0.563007,-0.2658643 1.075185,-0.3675179 1.825861,-0.363609 0.32451,0 0.67248,0.019549 0.781953,0.043008 0.105563,0.023459 0.199398,0.039098 0.203308,0.035188 0.0039,-0.00391 -0.484812,-0.684209 -1.083006,-1.5130797 C 21.263366,6.141259 20.774644,5.4531399 20.770735,5.433591 c 0,-0.015639 0.152481,0.050827 0.344059,0.1446616 0.719397,0.3596979 2.02526,0.8132317 3.233377,1.1221027 0.500451,0.1290227 0.629473,0.1759395 0.527819,0.1837596 -0.183759,0.019549 -0.934434,-0.058647 -1.270674,-0.1329327 -0.570826,-0.1251127 -0.703758,-0.1172926 -0.535638,0.035188 0.09383,0.086015 0.684209,0.34015 1.141652,0.4926306 0.930524,0.3127822 2.064357,0.33233 2.815031,0.046918 0.359699,-0.1368427 0.832781,-0.5551875 0.758495,-0.6763901 -0.01564,-0.023459 -0.312781,-0.027368 -0.793682,-0.011729 -0.609924,0.023458 -0.84451,0.015639 -1.137742,-0.035188 -0.430075,-0.070376 -0.989171,-0.2228575 -1.270675,-0.351879 l -0.191578,-0.086015 0.766314,-0.046918 c 1.790674,-0.1133826 3.084806,-0.4378937 3.432776,-0.8640586 0.09774,-0.1133826 0.117293,-0.1759394 0.117293,-0.33624 0,-0.2267663 -0.125113,-0.4496227 -0.308872,-0.5434574 C 28.293131,4.3154025 28.285312,4.3193114 28.117191,4.491342 27.886516,4.7259273 27.440802,5.0308894 27.088923,5.19119 26.392984,5.5157 25.704865,5.6251737 24.641409,5.5899858 23.855546,5.5626179 23.398103,5.4922421 22.768631,5.3006637 22.299459,5.1599121 21.365025,4.8041231 21.259461,4.7259273 21.208634,4.6868293 21.224273,4.6360025 21.388483,4.3114925 21.59961,3.8892377 21.666077,3.6507413 21.697355,3.1737497 21.728633,2.7358559 21.658257,2.364428 21.486227,2.012549 21.247731,1.5316484 20.94277,1.2775131 19.785479,0.62458195 L 19.60563,0.51901826 Z"
         id="path9"
         style="fill:#00811f;stroke:none;stroke-width:0.00390977" /><path
         d="M 13.654965,0.89435179 C 13.400829,1.0038255 13.260078,1.2071329 13.38519,1.2853287 c 0.02346,0.015639 0.183759,0.050827 0.351879,0.078195 0.832781,0.1446616 2.083906,0.6763901 3.925406,1.6733802 0.34015,0.1876696 0.645111,0.3284212 0.66857,0.3206012 0.02737,-0.00782 0.09774,-0.1212027 0.156391,-0.2463153 0.09774,-0.1993985 0.113384,-0.2658643 0.113384,-0.5981943 0,-0.4261648 -0.05083,-0.6060144 -0.215038,-0.7624049 -0.183759,-0.1759395 -0.383157,-0.1720295 -1.18075,0.015639 -0.379246,0.086015 -0.711578,0.1603006 -0.746765,0.1603006 -0.03128,0 -0.234586,-0.1172926 -0.445713,-0.2580442 C 15.019473,1.0038255 14.096768,0.70277335 13.654965,0.89435179 Z"
         id="path11"
         style="fill:#00811f;stroke:none;stroke-width:0.00390977" /><path
         d="M 5.8901667,1.1836739 C 5.2333266,1.512095 4.9361845,1.8405151 4.9361845,2.231492 c 0,0.3753379 0.32842,0.6959379 1.0712759,1.0478169 0.1993985,0.093835 0.3870669,0.1720306 0.4183448,0.1720306 0.031278,0 0.035188,0.011729 0.015639,0.035188 C 6.3749784,3.5529932 5.5265588,3.619459 5.1316729,3.5881811 4.9283645,3.5764522 4.5061097,3.5178053 4.1933286,3.4630685 3.2823532,3.3027679 3.3331801,3.3027679 3.3331801,3.455244 c 0,0.1055637 0.043007,0.1720306 0.2463153,0.367519 C 3.7671638,4.0104315 3.9235543,4.1120852 4.2715233,4.2802057 5.2919724,4.7767452 6.3437005,4.9996027 7.536179,4.9683248 8.1617423,4.9526847 8.2242981,4.9448658 8.5722671,4.8236632 8.9280561,4.7024605 9.643543,4.3701294 9.7999335,4.2528368 9.8429415,4.2215589 9.8624904,4.182461 9.8468515,4.166822 9.7882046,4.1081751 9.3620398,4.1511831 9.0609877,4.2489267 8.4471544,4.4483252 7.911517,4.4131373 7.6261038,4.159002 L 7.5009911,4.0495294 7.5987348,4.0182504 C 7.6495628,4.0026114 7.9427949,3.8853188 8.251666,3.7562961 11.391209,2.4582539 12.622786,2.3253223 15.156314,3.0212603 15.727141,3.1776508 16.106388,3.3105835 15.883531,3.2753956 15.590299,3.2284777 15.023383,3.2206587 14.593308,3.2558466 13.306995,3.3614103 12.274817,3.6546425 10.976774,4.2919347 10.253467,4.6438137 9.667002,5.0074216 9.4988825,5.2068201 9.291664,5.4570454 9.4050477,5.5313312 9.7569267,5.3827595 10.257377,5.1716322 10.495873,5.0934363 10.640534,5.0934363 c 0.203308,0 0.50827,0.093835 0.922705,0.2854132 0.398796,0.1837596 0.758494,0.2306764 1.149471,0.1485717 0.390977,-0.086015 0.957894,-0.398797 1.626464,-0.9031565 0.774133,-0.5825553 1.172929,-0.7936827 1.540447,-0.8132317 0.199399,-0.00781 0.293233,0.00391 0.402706,0.062557 l 0.148572,0.078195 0.555186,-0.1407516 C 17.294957,3.7367472 17.556911,3.6624625 17.57646,3.6468235 17.615558,3.6116356 16.184583,2.9196066 15.551201,2.6654713 13.506393,1.8522396 11.860381,1.6332932 10.292565,1.9695333 10.089257,2.0164501 9.5966262,2.1572017 9.1978303,2.2862244 8.7990334,2.415246 8.3611397,2.5442686 8.2203881,2.5755465 7.7238475,2.6811102 7.0552774,2.6185544 6.6682105,2.430886 6.2772347,2.2432165 6.167761,1.8561496 6.3593394,1.3244211 6.4140763,1.1641216 6.4609931,1.02337 6.4609931,1.01164 c 0,-0.0703758 -0.2228563,0 -0.5708264,0.1720295 z"
         id="path13"
         style="fill:#00811f;stroke:none;stroke-width:0.00390977" /><path
         d="M 1.3509276,1.8092372 C 1.249274,1.852244 1.1828082,1.9656277 1.1828082,2.0985593 c 0,0.1172937 0.1993973,0.3284211 0.3440589,0.359699 0.2697743,0.058647 0.6060144,0.1876684 0.8093217,0.3088711 0.1251127,0.074286 0.2306764,0.1368427 0.2384964,0.1368427 0.086015,0 -0.1993985,-0.5630064 -0.3909769,-0.7741338 C 1.929573,1.852244 1.581604,1.7193124 1.3509276,1.8092372 Z"
         id="path19"
         style="fill:#00811f;stroke:none;stroke-width:0.00390977" /><path
         d="m 16.833605,5.3944929 -0.402706,0.1016548 v 1.356688 1.3566892 l -0.222857,0.1212037 c -0.351879,0.1837584 -0.637292,0.2541342 -0.993081,0.2345853 -0.281503,-0.011729 -0.301052,-0.00781 -0.234586,0.046918 0.04301,0.031278 0.351879,0.2971422 0.692029,0.5864643 l 0.617743,0.5278185 0.414435,-0.00391 c 0.449624,0 0.67248,-0.062557 1.028269,-0.2893232 l 0.18376,-0.1172926 V 7.8498236 6.3836608 L 17.642926,5.8362933 C 17.439619,5.4335875 17.349694,5.2889259 17.298867,5.2928359 c -0.03519,0.00391 -0.246315,0.050827 -0.465262,0.1016537 z"
         id="path33"
         style="fill:#00811f;stroke:none;stroke-width:0.00390977" /></g></g></svg>
