<svg xmlns="http://www.w3.org/2000/svg" viewBox="0 0 24 24" height="24" width="24"><path d="M5.2 2C5 2 4.8 2.2 4.8 2.4 4.8 2.4 4.8 21.7 4.8 21.7 4.8 22 5 22.2 5.2 22.2 5.2 22.2 19.5 22.2 19.5 22.2 19.8 22.2 20 22 20 21.7 20 21.7 20 7.5 20 7.5 20 7.4 19.9 7.3 19.9 7.3 19.9 7.3 19.9 7.3 19.9 7.3 19.9 7.2 19.9 7.2 19.8 7.1 19.8 7.1 14.8 2.1 14.8 2.1 14.7 2 14.7 2 14.6 2 14.6 2 14.6 2 14.6 2 14.6 2 14.5 2 14.5 2 14.5 2 5.2 2 5.2 2M5.7 2.9C5.7 2.9 14 2.9 14 2.9 14 2.9 14 7.5 14 7.5 14 7.7 14.2 7.9 14.5 7.9 14.5 7.9 19 7.9 19 7.9 19 7.9 19 21.3 19 21.3 19 21.3 5.7 21.3 5.7 21.3 5.7 21.3 5.7 2.9 5.7 2.9M14.9 3.5C14.9 3.5 18.4 7 18.4 7 18.4 7 14.9 7 14.9 7 14.9 7 14.9 3.5 14.9 3.5M7.7 8.7C7.5 8.7 7.3 8.9 7.3 9.1 7.3 9.1 7.3 11.7 7.3 11.7 7.3 11.7 7.3 14.2 7.3 14.2 7.3 14.2 7.3 16.7 7.3 16.7 7.3 16.7 7.3 19.2 7.3 19.2 7.3 19.5 7.5 19.7 7.7 19.7 7.7 19.7 11.1 19.7 11.1 19.7 11.1 19.7 17 19.7 17 19.7 17.2 19.7 17.4 19.5 17.4 19.2 17.4 19.2 17.4 16.7 17.4 16.7 17.4 16.7 17.4 14.2 17.4 14.2 17.4 14.2 17.4 11.7 17.4 11.7 17.4 11.7 17.4 9.1 17.4 9.1 17.4 8.9 17.2 8.7 17 8.7 17 8.7 11.1 8.7 11.1 8.7 11.1 8.7 7.7 8.7 7.7 8.7M8.2 9.6C8.2 9.6 10.6 9.6 10.6 9.6 10.6 9.6 10.6 11.2 10.6 11.2 10.6 11.2 8.2 11.2 8.2 11.2 8.2 11.2 8.2 9.6 8.2 9.6M11.6 9.6C11.6 9.6 16.5 9.6 16.5 9.6 16.5 9.6 16.5 11.2 16.5 11.2 16.5 11.2 11.6 11.2 11.6 11.2 11.6 11.2 11.6 9.6 11.6 9.6M8.2 12.2C8.2 12.2 10.6 12.2 10.6 12.2 10.6 12.2 10.6 13.7 10.6 13.7 10.6 13.7 8.2 13.7 8.2 13.7 8.2 13.7 8.2 12.2 8.2 12.2M11.6 12.2C11.6 12.2 16.5 12.2 16.5 12.2 16.5 12.2 16.5 13.7 16.5 13.7 16.5 13.7 11.6 13.7 11.6 13.7 11.6 13.7 11.6 12.2 11.6 12.2M8.2 14.7C8.2 14.7 10.6 14.7 10.6 14.7 10.6 14.7 10.6 16.2 10.6 16.2 10.6 16.2 8.2 16.2 8.2 16.2 8.2 16.2 8.2 14.7 8.2 14.7M11.6 14.7C11.6 14.7 16.5 14.7 16.5 14.7 16.5 14.7 16.5 16.2 16.5 16.2 16.5 16.2 11.6 16.2 11.6 16.2 11.6 16.2 11.6 14.7 11.6 14.7M8.2 17.2C8.2 17.2 10.6 17.2 10.6 17.2 10.6 17.2 10.6 18.8 10.6 18.8 10.6 18.8 8.2 18.8 8.2 18.8 8.2 18.8 8.2 17.2 8.2 17.2M11.6 17.2C11.6 17.2 16.5 17.2 16.5 17.2 16.5 17.2 16.5 18.8 16.5 18.8 16.5 18.8 11.6 18.8 11.6 18.8 11.6 18.8 11.6 17.2 11.6 17.2"/></svg>