<svg xmlns="http://www.w3.org/2000/svg" width="24" height="24" viewBox="0 0 24 23"><path d="M2.38 15.81C2.38 15.81 7.13 15.81 7.13 15.81 7.41 15.81 7.63 16.04 7.63 16.31 7.63 16.59 7.41 16.81 7.13 16.81 7.13 16.81 1.88 16.81 1.88 16.81 1.6 16.81 1.38 16.59 1.38 16.31 1.38 16.31 1.38 1.44 1.38 1.44 1.38 1.16 1.6 0.94 1.88 0.94 1.88 0.94 16.76 0.94 16.76 0.94 17.03 0.94 17.26 1.16 17.26 1.44 17.26 1.44 17.26 6.69 17.26 6.69 17.26 6.96 17.03 7.19 16.76 7.19 16.48 7.19 16.26 6.96 16.26 6.69 16.26 6.69 16.26 1.94 16.26 1.94 16.26 1.94 2.38 1.94 2.38 1.94 2.38 1.94 2.38 15.81 2.38 15.81 2.38 15.81 2.38 15.81 2.38 15.81"/><path d="M21.51 21.06C21.51 21.06 21.51 7.19 21.51 7.19 21.51 7.19 7.63 7.19 7.63 7.19 7.63 7.19 7.63 21.06 7.63 21.06 7.63 21.06 21.51 21.06 21.51 21.06 21.51 21.06 21.51 21.06 21.51 21.06M22.01 22.06C22.01 22.06 7.13 22.06 7.13 22.06 6.85 22.06 6.63 21.84 6.63 21.56 6.63 21.56 6.63 6.69 6.63 6.69 6.63 6.41 6.85 6.19 7.13 6.19 7.13 6.19 22.01 6.19 22.01 6.19 22.28 6.19 22.51 6.41 22.51 6.69 22.51 6.69 22.51 21.56 22.51 21.56 22.51 21.84 22.28 22.06 22.01 22.06 22.01 22.06 22.01 22.06 22.01 22.06"/></svg>