<svg version="1.1" id="Layer_1" xmlns="http://www.w3.org/2000/svg" xmlns:xlink="http://www.w3.org/1999/xlink" x="0px" y="0px"
	 width="100%" viewBox="0 0 512 512" enable-background="new 0 0 512 512" xml:space="preserve">
<path fill="#2E7CBA" opacity="1.000000" stroke="none" 
	d="
M304.000000,513.000000 
	C202.691269,513.000000 101.882530,513.000000 1.036899,513.000000 
	C1.036899,342.399567 1.036899,171.799149 1.036899,1.099354 
	C171.558746,1.099354 342.117554,1.099354 512.838196,1.099354 
	C512.838196,171.666550 512.838196,342.333252 512.838196,513.000000 
	C443.465790,513.000000 373.982880,513.000000 304.000000,513.000000 
M30.311289,226.350662 
	C30.501863,226.584961 30.746754,226.722778 31.470791,227.106781 
	C31.809034,227.236893 32.147278,227.366989 32.884438,228.019257 
	C34.634827,228.926331 36.385216,229.833389 38.173622,230.813522 
	C38.173622,230.813522 38.255962,230.811600 38.662556,231.343445 
	C41.428452,232.600952 44.194347,233.858459 47.229370,235.254868 
	C47.229370,235.254868 47.528160,235.304352 47.773544,235.795547 
	C48.241669,236.041977 48.709793,236.288422 49.672890,236.820099 
	C50.032097,236.944351 50.391300,237.068604 51.094688,237.770721 
	C53.760483,239.099380 56.426277,240.428024 59.538612,242.047852 
	C59.872128,242.167435 60.205639,242.287003 60.887470,242.987808 
	C64.531860,244.760406 68.176247,246.533005 71.813210,248.211151 
	C71.813210,248.211151 71.762222,248.291000 72.086395,248.872986 
	C76.993919,251.392502 81.901436,253.912033 87.344154,256.895020 
	C88.153580,257.379700 88.963013,257.864349 89.163513,258.764099 
	C85.636459,260.842804 82.102600,262.910065 78.584000,265.002960 
	C73.695930,267.910431 68.819275,270.837067 63.180767,273.816345 
	C50.291290,280.651001 37.400360,287.482941 24.527597,294.348938 
	C24.352493,294.442352 24.406576,294.965515 24.267944,295.811157 
	C43.835617,306.355164 63.550217,316.978363 83.568443,328.046204 
	C84.042534,328.259308 84.516617,328.472382 85.185692,328.687897 
	C85.185692,328.687897 85.301453,328.844788 85.536522,329.124725 
	C85.742805,329.280792 85.973618,329.337830 86.507523,329.321045 
	C86.507523,329.321045 86.700211,329.523804 86.381767,330.253906 
	C82.738655,332.935669 79.237747,335.843597 75.418312,338.244873 
	C70.012779,341.643341 64.372169,344.667908 58.165760,348.076599 
	C46.557659,354.037598 34.949554,359.998566 22.006498,366.645081 
	C25.369066,368.750000 27.061941,369.955292 28.880234,370.925476 
	C46.952637,380.567871 65.051346,390.160950 83.131706,399.788452 
	C111.505783,414.897247 139.876541,430.012360 168.239273,445.142426 
	C196.009796,459.956573 223.798630,474.737061 251.496964,489.685120 
	C255.260605,491.716248 258.411072,491.957306 262.233612,489.897369 
	C287.890564,476.070801 313.628082,462.393738 339.346039,448.680542 
	C388.288971,422.583466 437.238312,396.498444 486.171967,370.384033 
	C487.697662,369.569824 489.079559,368.486115 491.895752,366.623993 
	C479.149750,359.998566 467.586182,353.987762 455.558563,347.476715 
	C447.183533,342.928467 438.761475,338.462646 430.483490,333.744171 
	C429.224426,333.026489 428.633331,331.136963 428.175507,329.364288 
	C428.736755,329.148560 429.298004,328.932831 430.474884,328.694641 
	C431.302551,328.119659 432.130219,327.544708 433.518616,326.552460 
	C452.739410,316.227844 471.960236,305.903229 491.181030,295.578613 
	C491.143463,295.049103 491.105896,294.519623 491.068359,293.990112 
	C480.056580,288.303772 469.044830,282.617401 457.681824,276.464386 
	C457.132935,276.297455 456.584015,276.130524 455.649872,275.399780 
	C454.194977,274.791809 452.740051,274.183868 450.934479,273.012695 
	C442.226807,268.277130 433.519135,263.541565 425.355225,258.254181 
	C427.324493,257.031006 429.231689,255.691498 431.272736,254.602859 
	C448.703491,245.305664 466.166473,236.068756 483.597504,226.772064 
	C486.082123,225.446930 488.447479,223.898239 490.868042,222.453003 
	C490.802887,221.885529 490.737701,221.318039 490.672546,220.750549 
	C479.966095,215.207764 469.259644,209.664963 458.483978,203.847717 
	C458.331879,203.680206 458.159424,203.655807 457.400177,203.408951 
	C456.987213,203.233017 456.574219,203.057083 455.859131,202.267288 
	C444.970001,196.520233 434.080902,190.773178 423.187500,184.505051 
	C423.191895,184.331406 423.196289,184.157761 423.878876,183.826355 
	C446.317017,172.000122 468.755157,160.173904 492.219513,147.806808 
	C489.106232,145.946594 487.325409,144.781647 485.456665,143.780884 
	C449.029480,124.273529 412.595917,104.778099 376.155670,85.295143 
	C337.951477,64.869087 299.721527,44.491108 261.560577,23.984684 
	C258.244995,22.203009 255.606033,22.195618 252.295410,24.051460 
	C242.853134,29.344519 233.195160,34.251495 223.648102,39.359077 
	C158.417038,74.257019 93.191216,109.164711 27.974340,144.089111 
	C26.271572,145.000977 24.689983,146.139130 22.211433,147.701538 
	C28.377028,151.064178 33.721664,153.999573 39.085014,156.900375 
	C56.221897,166.168900 73.365723,175.424561 89.894020,185.205139 
	C80.524216,190.380890 71.154419,195.556656 61.827759,200.803391 
	C61.827759,200.803391 61.847496,200.722702 61.115780,200.745728 
	C58.975231,202.083298 56.834682,203.420868 54.147736,204.885864 
	C53.803562,205.030762 53.459385,205.175659 52.396217,205.339233 
	C48.096287,207.748627 43.796356,210.158035 38.997398,212.724564 
	C38.698082,212.901718 38.398769,213.078873 37.384670,213.307358 
	C34.178905,215.113312 30.973143,216.919266 27.808027,218.793671 
	C27.808027,218.793671 27.833046,218.718094 27.262659,218.819824 
	C26.836370,219.196335 26.410082,219.572845 25.972178,219.963150 
	C25.972178,219.963150 25.953716,219.961838 25.300879,219.953491 
	C24.503916,220.634430 23.706951,221.315369 22.909981,221.996323 
	C24.312843,222.887222 25.715704,223.778122 27.531429,225.004623 
	C27.861042,225.129150 28.190655,225.253662 28.939161,225.724777 
	C29.290535,225.787094 29.641909,225.849411 30.033707,225.977005 
	C30.033707,225.977005 30.110254,225.970917 30.311289,226.350662 
z"/>
<path fill="#0AD4DC" opacity="1.000000" stroke="none" 
	d="
M90.506866,184.685196 
	C73.365723,175.424561 56.221897,166.168900 39.085014,156.900375 
	C33.721664,153.999573 28.377028,151.064178 22.211433,147.701538 
	C24.689983,146.139130 26.271572,145.000977 27.974340,144.089111 
	C93.191216,109.164711 158.417038,74.257019 223.648102,39.359077 
	C233.195160,34.251495 242.853134,29.344519 252.295410,24.051460 
	C255.606033,22.195618 258.244995,22.203009 261.560577,23.984684 
	C299.721527,44.491108 337.951477,64.869087 376.155670,85.295143 
	C412.595917,104.778099 449.029480,124.273529 485.456665,143.780884 
	C487.325409,144.781647 489.106232,145.946594 492.219513,147.806808 
	C468.755157,160.173904 446.317017,172.000122 423.136414,183.889404 
	C421.594421,183.948822 420.794891,183.945160 419.736511,183.726166 
	C416.271484,181.759949 413.076385,179.988464 409.857300,178.261749 
	C394.640930,170.099731 379.426544,161.934021 364.194397,153.801575 
	C354.386230,148.564987 344.507111,143.459991 334.737091,138.153687 
	C326.701843,133.789581 318.856812,129.072815 310.791534,124.766983 
	C296.898193,117.349693 282.673218,110.523407 269.029114,102.680717 
	C260.830505,97.968124 253.609985,96.733887 245.491745,102.486938 
	C240.358078,106.124931 234.622726,108.946358 229.037704,111.908630 
	C214.681030,119.523338 200.230667,126.961365 185.872314,134.572952 
	C178.530807,138.464783 171.368439,142.695267 164.017288,146.567993 
	C144.202530,157.006836 124.305214,167.289154 104.504158,177.753738 
	C101.170471,179.515549 98.153191,181.876083 94.716812,184.062592 
	C93.944321,184.461487 93.444733,184.757797 92.631454,185.045288 
	C91.714134,184.919388 91.110497,184.802292 90.506866,184.685196 
z"/>
<path fill="#6094A7" opacity="1.000000" stroke="none" 
	d="
M456.022614,347.976959 
	C467.586182,353.987762 479.149750,359.998566 491.895752,366.623993 
	C489.079559,368.486115 487.697662,369.569824 486.171967,370.384033 
	C437.238312,396.498444 388.288971,422.583466 339.346039,448.680542 
	C313.628082,462.393738 287.890564,476.070801 262.233612,489.897369 
	C258.411072,491.957306 255.260605,491.716248 251.496964,489.685120 
	C223.798630,474.737061 196.009796,459.956573 168.239273,445.142426 
	C139.876541,430.012360 111.505783,414.897247 83.131706,399.788452 
	C65.051346,390.160950 46.952637,380.567871 28.880234,370.925476 
	C27.061941,369.955292 25.369066,368.750000 22.006498,366.645081 
	C34.949554,359.998566 46.557659,354.037598 58.855953,347.933289 
	C61.761822,348.258881 64.219193,348.265045 66.152519,349.274658 
	C76.017509,354.426514 85.710686,359.905884 95.530899,365.145203 
	C124.873100,380.799866 154.257767,396.374969 183.604095,412.021912 
	C206.210739,424.075409 228.705551,436.343597 251.469742,448.090637 
	C254.418472,449.612244 259.101654,449.690155 262.249817,448.500671 
	C268.419403,446.169495 274.086517,442.498077 279.938293,439.338196 
	C301.006805,427.961334 322.067688,416.570282 343.127380,405.177063 
	C356.134613,398.140259 369.081512,390.989868 382.149536,384.068024 
	C404.049377,372.468201 425.991516,360.946594 448.015839,349.585876 
	C450.342377,348.385803 453.337616,348.482086 456.022614,347.976959 
z"/>
<path fill="#558CAA" opacity="1.000000" stroke="none" 
	d="
M455.790588,347.726837 
	C453.337616,348.482086 450.342377,348.385803 448.015839,349.585876 
	C425.991516,360.946594 404.049377,372.468201 382.149536,384.068024 
	C369.081512,390.989868 356.134613,398.140259 343.127380,405.177063 
	C322.067688,416.570282 301.006805,427.961334 279.938293,439.338196 
	C274.086517,442.498077 268.419403,446.169495 262.249817,448.500671 
	C259.101654,449.690155 254.418472,449.612244 251.469742,448.090637 
	C228.705551,436.343597 206.210739,424.075409 183.604095,412.021912 
	C154.257767,396.374969 124.873100,380.799866 95.530899,365.145203 
	C85.710686,359.905884 76.017509,354.426514 66.152519,349.274658 
	C64.219193,348.265045 61.761822,348.258881 59.189095,347.821106 
	C64.372169,344.667908 70.012779,341.643341 75.418312,338.244873 
	C79.237747,335.843597 82.738655,332.935669 86.853912,329.924988 
	C88.695427,330.241272 90.064789,330.886414 91.463539,331.558228 
	C91.492928,331.584839 91.555099,331.534363 91.770927,331.785034 
	C96.504715,334.469299 101.007393,336.931793 105.543297,339.331451 
	C124.566399,349.395264 143.599472,359.440308 162.670410,369.471191 
	C162.711945,369.450134 162.620407,369.432892 162.834045,369.685242 
	C168.608917,372.792358 174.170151,375.647095 179.737564,378.467468 
	C179.743744,378.433136 179.674927,378.445068 179.887390,378.699097 
	C183.404236,380.614807 186.708618,382.276459 190.108200,384.043823 
	C190.203384,384.149475 190.487198,384.168488 190.723297,384.437744 
	C199.979401,389.441498 208.999390,394.175995 218.174774,399.081299 
	C218.330154,399.252106 218.750687,399.443085 218.750687,399.443085 
	C218.750687,399.443085 219.211761,399.416199 219.434555,399.692078 
	C228.438889,404.638519 237.220413,409.309082 246.097260,414.078674 
	C246.192551,414.177765 246.467468,414.181519 246.724518,414.437622 
	C248.845352,415.755981 250.603973,417.134827 252.600327,417.797974 
	C254.937469,418.574341 257.976227,419.807861 259.845184,418.952393 
	C265.949951,416.158173 271.661102,412.503876 277.658630,409.181274 
	C277.793610,409.182159 277.988190,408.995056 278.305298,408.942017 
	C278.936981,408.609558 279.251617,408.330078 279.692200,408.064911 
	C279.818146,408.079193 279.987122,407.890198 280.342102,407.845428 
	C284.651825,405.595123 288.606537,403.389587 292.689056,401.194702 
	C292.816833,401.205322 292.996399,401.022247 293.313843,400.997192 
	C294.503845,400.405334 295.376434,399.838531 296.219360,399.290222 
	C296.189758,399.308685 296.253906,399.336182 296.612305,399.285858 
	C309.185333,392.558014 321.399963,385.880493 333.716522,379.237610 
	C333.818420,379.272278 333.971161,379.120667 334.339966,379.095276 
	C340.572632,375.830261 346.436462,372.590668 352.255310,369.375427 
	C352.210327,369.399750 352.312164,369.386749 352.665710,369.333405 
	C362.108917,364.302399 371.198578,359.324768 380.259277,354.366547 
	C380.230377,354.385956 380.294159,354.414032 380.620361,354.375732 
	C382.051300,353.657928 383.156036,352.978424 384.226196,352.312286 
	C384.191620,352.325623 384.255981,352.362366 384.612976,352.294189 
	C394.324463,347.158569 403.678955,342.091095 413.017395,337.008484 
	C413.001312,336.993378 413.008728,337.036743 413.275848,336.973267 
	C413.763336,336.630920 413.983673,336.352020 414.160217,336.106750 
	C414.116394,336.140411 414.175751,336.233582 414.543976,336.223816 
	C419.185883,334.072510 423.459564,331.931000 427.733246,329.789459 
	C428.633331,331.136963 429.224426,333.026489 430.483490,333.744171 
	C438.761475,338.462646 447.183533,342.928467 455.790588,347.726837 
z"/>
<path fill="#5CBF20" opacity="1.000000" stroke="none" 
	d="
M458.553192,204.122162 
	C469.259644,209.664963 479.966095,215.207764 490.672546,220.750549 
	C490.737701,221.318039 490.802887,221.885529 490.868042,222.453003 
	C488.447479,223.898239 486.082123,225.446930 483.597504,226.772064 
	C466.166473,236.068756 448.703491,245.305664 431.272736,254.602859 
	C429.231689,255.691498 427.324493,257.031006 424.812805,258.518311 
	C423.526978,258.826050 422.783569,258.869629 421.872131,258.621704 
	C419.204681,256.765747 416.795227,255.029419 414.190155,253.667038 
	C403.495544,248.073990 392.741364,242.594772 382.039917,236.760315 
	C382.126923,236.033432 382.183105,235.619873 382.610168,235.175842 
	C389.507202,231.898132 396.092194,228.763107 402.546692,225.379120 
	C414.171082,219.284653 425.652618,212.915298 437.323395,206.912689 
	C443.165466,203.907944 448.742371,198.846710 456.161255,202.881149 
	C456.574219,203.057083 456.987213,203.233017 457.752014,203.690506 
	C458.103882,203.972061 458.553192,204.122162 458.553192,204.122162 
z"/>
<path fill="#5CC01F" opacity="1.000000" stroke="none" 
	d="
M53.115211,205.320557 
	C53.459385,205.175659 53.803562,205.030762 54.785286,204.815079 
	C57.564384,203.403763 59.705940,202.063232 61.847496,200.722702 
	C61.847496,200.722702 61.827759,200.803391 62.209869,200.862335 
	C64.048599,201.221588 65.671959,201.205246 66.936180,201.870941 
	C80.277161,208.895996 93.534019,216.080688 106.870186,223.114990 
	C115.196785,227.506943 123.619179,231.717285 131.961807,236.276520 
	C131.897049,236.721710 131.869064,236.899521 131.535736,237.227982 
	C123.718689,241.092636 116.084946,244.582916 108.734337,248.592316 
	C102.976990,251.732651 97.570328,255.515915 91.774200,258.947693 
	C90.951172,258.704254 90.361809,258.526642 89.772446,258.348999 
	C88.963013,257.864349 88.153580,257.379700 86.893631,256.362244 
	C81.549484,253.316666 76.655853,250.803833 71.762222,248.291000 
	C71.762222,248.291000 71.813210,248.211151 71.613663,247.979614 
	C67.789131,245.967590 64.164139,244.187088 60.539150,242.406586 
	C60.205639,242.287003 59.872128,242.167435 59.172531,241.605774 
	C56.121140,239.840088 53.435822,238.516464 50.750507,237.192856 
	C50.391300,237.068604 50.032097,236.944351 49.293617,236.442490 
	C48.452282,235.811371 47.990223,235.557861 47.528160,235.304352 
	C47.528160,235.304352 47.229370,235.254868 46.902203,234.897446 
	C43.802010,233.297226 41.028984,232.054413 38.255959,230.811615 
	C38.255962,230.811600 38.173622,230.813522 38.008568,230.477997 
	C36.057518,229.260666 34.271523,228.378891 32.485523,227.497101 
	C32.147278,227.366989 31.809034,227.236893 31.151199,226.752289 
	C30.641830,226.169891 30.401379,226.027603 30.110254,225.970917 
	C30.110254,225.970917 30.033707,225.977005 29.799717,225.784058 
	C29.217241,225.520126 28.868753,225.449158 28.520267,225.378189 
	C28.190655,225.253662 27.861042,225.129150 27.224375,224.571411 
	C26.596119,222.746078 26.274920,221.353958 25.953716,219.961838 
	C25.953716,219.961838 25.972178,219.963150 26.264839,219.907837 
	C26.982683,219.474365 27.407864,219.096237 27.833046,218.718094 
	C27.833046,218.718094 27.808027,218.793671 28.164547,218.796814 
	C31.713863,216.951965 34.906658,215.104004 38.099457,213.256027 
	C38.398769,213.078873 38.698082,212.901718 39.629379,212.664642 
	C44.545975,210.176682 48.830593,207.748627 53.115211,205.320557 
z"/>
<path fill="#C8BB3C" opacity="1.000000" stroke="none" 
	d="
M91.434151,331.531586 
	C90.064789,330.886414 88.695427,330.241272 87.013138,329.559937 
	C86.700211,329.523804 86.507523,329.321045 86.272697,329.142517 
	C85.815979,328.779236 85.570503,328.739502 85.301453,328.844788 
	C85.301453,328.844788 85.185692,328.687897 84.957184,328.453796 
	C84.240730,328.013611 83.752777,327.807556 83.264816,327.601532 
	C63.550217,316.978363 43.835617,306.355164 24.267944,295.811157 
	C24.406576,294.965515 24.352493,294.442352 24.527597,294.348938 
	C37.400360,287.482941 50.291290,280.651001 63.729843,274.097443 
	C65.926910,275.474152 67.496788,276.716522 69.235298,277.642090 
	C82.579971,284.746918 95.943710,291.816254 109.330185,298.842041 
	C116.525772,302.618561 123.777870,306.287415 131.241241,310.223083 
	C132.983215,311.629364 134.488434,312.817413 135.614349,313.983459 
	C132.813828,312.967682 130.441025,311.820496 127.953934,311.035400 
	C126.360474,310.532440 124.164871,309.802612 122.981232,310.476929 
	C114.323730,315.409180 105.786453,320.564514 97.370049,325.899963 
	C95.109764,327.332855 93.397820,329.630768 91.434151,331.531586 
z"/>
<path fill="#CDBB32" opacity="1.000000" stroke="none" 
	d="
M456.035126,275.963593 
	C456.584015,276.130524 457.132935,276.297455 457.928162,277.041443 
	C465.695068,281.817291 471.324860,289.031952 480.121826,291.252563 
	C481.719208,291.655792 483.079498,292.998169 484.549255,293.906982 
	C483.496674,294.662445 482.418304,295.385498 481.405914,296.191437 
	C481.063873,296.463745 480.977020,297.080933 480.623962,297.311127 
	C477.763062,299.176514 474.910950,301.064026 471.957062,302.773529 
	C470.905029,303.382294 469.412994,303.265167 468.412964,303.922394 
	C466.150574,305.409180 464.304047,307.917480 461.870758,308.683105 
	C454.366241,311.044434 448.623871,316.362518 441.809326,319.801514 
	C435.324707,323.074066 428.648560,325.967072 421.756683,328.840637 
	C412.439545,324.017792 403.528900,319.153656 394.351776,314.858917 
	C390.775696,313.185364 386.599487,312.794128 382.900879,311.569031 
	C384.416473,310.221222 385.727875,309.123138 387.380920,307.989807 
	C389.039490,307.577759 390.356384,307.200958 392.072357,306.817932 
	C399.984406,302.566711 407.497345,298.321686 415.235382,293.901184 
	C415.977661,293.491455 416.494873,293.257202 417.295471,293.104523 
	C426.342438,290.496613 434.767303,287.204651 441.291046,279.864502 
	C442.971863,279.100006 444.363403,278.487823 446.142639,277.852631 
	C449.698578,277.207611 452.866852,276.585602 456.035126,275.963593 
z"/>
<path fill="#4DAB4F" opacity="1.000000" stroke="none" 
	d="
M131.998581,236.009125 
	C123.619179,231.717285 115.196785,227.506943 106.870186,223.114990 
	C93.534019,216.080688 80.277161,208.895996 66.936180,201.870941 
	C65.671959,201.205246 64.048599,201.221588 62.188297,200.826843 
	C71.154419,195.556656 80.524216,190.380890 90.200439,184.945160 
	C91.110497,184.802292 91.714134,184.919388 92.822632,185.281540 
	C93.879776,185.754364 94.432045,185.982132 95.089523,186.243027 
	C95.194717,186.276154 95.352127,186.121643 95.531860,186.407211 
	C96.472954,187.115860 97.234306,187.538925 98.194450,188.085205 
	C98.393242,188.208405 98.850494,188.307129 98.850494,188.307129 
	C98.850494,188.307129 99.306168,188.201355 99.512634,188.498627 
	C101.802025,189.906326 103.884956,191.016739 106.174759,192.322388 
	C106.915810,192.685440 107.449989,192.853287 108.200249,193.276382 
	C110.612503,194.664688 112.808670,195.797760 115.205505,197.056274 
	C115.406174,197.181747 115.871452,197.268921 115.871452,197.268921 
	C115.871452,197.268921 116.322906,197.126526 116.486084,197.434387 
	C117.415070,198.219971 118.180870,198.697693 119.171440,199.412781 
	C120.585426,200.145172 121.774651,200.640228 123.161522,201.393097 
	C124.891312,202.465927 126.423439,203.280914 128.166840,204.290955 
	C128.923431,204.645721 129.468750,204.805466 130.252777,205.209610 
	C135.998901,208.364548 141.506348,211.275055 147.144714,214.202530 
	C147.275665,214.219482 147.438812,214.011810 147.668579,214.313049 
	C148.363617,214.810120 148.828888,215.005936 149.307434,215.203796 
	C149.320709,215.205811 149.343536,215.191666 149.580582,215.473175 
	C151.542694,216.592010 153.267746,217.429337 155.112259,218.277924 
	C155.231705,218.289200 155.354965,218.083313 155.492447,218.385040 
	C156.739395,219.278091 157.848846,219.869431 159.137695,220.697479 
	C159.552658,221.251251 159.788223,221.568329 159.726151,222.074112 
	C150.285202,226.844925 141.141891,231.427017 131.998581,236.009125 
z"/>
<path fill="#4DAC4F" opacity="1.000000" stroke="none" 
	d="
M456.010193,202.574219 
	C448.742371,198.846710 443.165466,203.907944 437.323395,206.912689 
	C425.652618,212.915298 414.171082,219.284653 402.546692,225.379120 
	C396.092194,228.763107 389.507202,231.898132 382.221619,235.088104 
	C379.533630,234.120163 377.581055,233.256821 375.680695,232.290756 
	C366.783356,227.767731 358.643066,220.093094 347.582336,225.329468 
	C348.881561,224.115723 349.971649,223.141266 351.425354,222.118622 
	C352.247406,221.903595 352.705841,221.736771 353.352631,221.551880 
	C353.795685,221.442459 353.974792,221.271729 354.048065,221.028503 
	C354.017883,221.035400 354.053528,221.086029 354.401611,221.009369 
	C361.068085,217.367310 367.386505,213.801895 373.978088,210.291611 
	C374.858429,209.961868 375.465576,209.576996 376.424561,209.129364 
	C379.414337,207.478958 382.052277,205.891312 384.911224,204.386139 
	C385.464691,204.469696 385.751129,204.355484 386.337402,204.049011 
	C388.929016,202.481674 391.174774,200.991287 393.419342,199.557968 
	C393.418121,199.615036 393.532257,199.617691 393.785461,199.623596 
	C394.353119,199.491837 394.667572,199.354187 395.346802,199.152374 
	C400.064972,196.529526 404.418304,193.970856 408.846710,191.525314 
	C408.921783,191.638458 409.191132,191.604019 409.532227,191.551956 
	C411.378113,190.542389 412.882935,189.584885 414.678223,188.574402 
	C415.311676,188.332520 415.654694,188.143585 416.319824,187.911942 
	C417.847473,186.999832 419.052948,186.130417 420.268188,185.306854 
	C420.277893,185.352692 420.371613,185.352036 420.726654,185.363708 
	C421.785065,185.258957 422.488403,185.142548 423.191772,185.026138 
	C434.080902,190.773178 444.970001,196.520233 456.010193,202.574219 
z"/>
<path fill="#9CA859" opacity="1.000000" stroke="none" 
	d="
M131.004471,310.004852 
	C123.777870,306.287415 116.525772,302.618561 109.330185,298.842041 
	C95.943710,291.816254 82.579971,284.746918 69.235298,277.642090 
	C67.496788,276.716522 65.926910,275.474152 64.108322,274.067017 
	C68.819275,270.837067 73.695930,267.910431 78.584000,265.002960 
	C82.102600,262.910065 85.636459,260.842804 89.467979,258.556549 
	C90.361809,258.526642 90.951172,258.704254 92.018967,259.181458 
	C111.250038,269.491791 130.025818,279.459625 148.737106,289.547119 
	C152.799438,291.737152 156.630386,294.356506 160.136047,296.747559 
	C157.440063,296.802032 154.770874,296.136932 152.982407,297.102722 
	C145.512375,301.136688 138.306915,305.660553 131.004471,310.004852 
z"/>
<path fill="#9CA859" opacity="1.000000" stroke="none" 
	d="
M417.012085,293.022980 
	C416.494873,293.257202 415.977661,293.491455 414.899872,293.973389 
	C412.618164,294.845459 410.897034,295.469818 408.779541,296.117615 
	C406.271118,297.458954 404.158997,298.776855 401.780701,300.307007 
	C398.234131,302.620911 394.953705,304.722534 391.673279,306.824158 
	C390.356384,307.200958 389.039490,307.577759 386.986298,308.029663 
	C383.443726,307.720856 380.253235,308.062073 377.903351,306.816895 
	C370.901459,303.106567 364.229645,298.773315 357.651428,294.414368 
	C368.661804,288.262177 379.462830,282.403015 390.233795,276.489166 
	C400.851746,270.659332 411.439270,264.774139 422.040161,258.913239 
	C422.783569,258.869629 423.526978,258.826050 424.540924,258.794189 
	C433.519135,263.541565 442.226807,268.277130 450.836334,273.529602 
	C449.077118,275.322876 447.416046,276.599243 445.754974,277.875641 
	C444.363403,278.487823 442.971863,279.100006 440.947205,279.950867 
	C432.546783,284.467377 424.779419,288.745178 417.012085,293.022980 
z"/>
<path fill="#C8BB3C" opacity="1.000000" stroke="none" 
	d="
M422.056610,329.026947 
	C428.648560,325.967072 435.324707,323.074066 441.809326,319.801514 
	C448.623871,316.362518 454.366241,311.044434 461.870758,308.683105 
	C464.304047,307.917480 466.150574,305.409180 468.412964,303.922394 
	C469.412994,303.265167 470.905029,303.382294 471.957062,302.773529 
	C474.910950,301.064026 477.763062,299.176514 480.623962,297.311127 
	C480.977020,297.080933 481.063873,296.463745 481.405914,296.191437 
	C482.418304,295.385498 483.496674,294.662445 484.549255,293.906982 
	C483.079498,292.998169 481.719208,291.655792 480.121826,291.252563 
	C471.324860,289.031952 465.695068,281.817291 458.103790,277.274780 
	C469.044830,282.617401 480.056580,288.303772 491.068359,293.990112 
	C491.105896,294.519623 491.143463,295.049103 491.181030,295.578613 
	C471.960236,305.903229 452.739410,316.227844 432.924194,326.757843 
	C431.506287,327.547852 430.682770,328.132477 429.859253,328.717102 
	C429.298004,328.932831 428.736755,329.148560 427.954376,329.576874 
	C423.459564,331.931000 419.185883,334.072510 414.675415,335.896240 
	C416.977966,333.394623 419.517303,331.210785 422.056610,329.026947 
z"/>
<path fill="#4DAB4F" opacity="1.000000" stroke="none" 
	d="
M52.755714,205.329895 
	C48.830593,207.748627 44.545975,210.176682 39.878891,212.586090 
	C43.796356,210.158035 48.096287,207.748627 52.755714,205.329895 
z"/>
<path fill="#4DAB4F" opacity="1.000000" stroke="none" 
	d="
M71.924309,248.582001 
	C76.655853,250.803833 81.549484,253.316666 86.626038,256.130524 
	C81.901436,253.912033 76.993919,251.392502 71.924309,248.582001 
z"/>
<path fill="#4DAB4F" opacity="1.000000" stroke="none" 
	d="
M60.713310,242.697205 
	C64.164139,244.187088 67.789131,245.967590 71.617386,248.026855 
	C68.176247,246.533005 64.531860,244.760406 60.713310,242.697205 
z"/>
<path fill="#4DAB4F" opacity="1.000000" stroke="none" 
	d="
M37.742065,213.281693 
	C34.906658,215.104004 31.713863,216.951965 28.144222,218.762573 
	C30.973143,216.919266 34.178905,215.113312 37.742065,213.281693 
z"/>
<path fill="#C8BB3C" opacity="1.000000" stroke="none" 
	d="
M446.142639,277.852631 
	C447.416046,276.599243 449.077118,275.322876 451.011658,273.811218 
	C452.740051,274.183868 454.194977,274.791809 455.842499,275.681702 
	C452.866852,276.585602 449.698578,277.207611 446.142639,277.852631 
z"/>
<path fill="#4DAB4F" opacity="1.000000" stroke="none" 
	d="
M50.922600,237.481781 
	C53.435822,238.516464 56.121140,239.840088 58.949265,241.460190 
	C56.426277,240.428024 53.760483,239.099380 50.922600,237.481781 
z"/>
<path fill="#4DAB4F" opacity="1.000000" stroke="none" 
	d="
M25.627298,219.957672 
	C26.274920,221.353958 26.596119,222.746078 27.017942,224.403610 
	C25.715704,223.778122 24.312843,222.887222 22.909985,221.996307 
	C23.706951,221.315369 24.503916,220.634430 25.627298,219.957672 
z"/>
<path fill="#4DAB4F" opacity="1.000000" stroke="none" 
	d="
M38.459259,231.077530 
	C41.028984,232.054413 43.802010,233.297226 46.767639,234.827988 
	C44.194347,233.858459 41.428452,232.600952 38.459259,231.077530 
z"/>
<path fill="#4DAB4F" opacity="1.000000" stroke="none" 
	d="
M61.481636,200.734222 
	C59.705940,202.063232 57.564384,203.403763 55.058483,204.751373 
	C56.834682,203.420868 58.975231,202.083298 61.481636,200.734222 
z"/>
<path fill="#4DAB4F" opacity="1.000000" stroke="none" 
	d="
M32.684982,227.758179 
	C34.271523,228.378891 36.057518,229.260666 37.989559,230.441452 
	C36.385216,229.833389 34.634827,228.926331 32.684982,227.758179 
z"/>
<path fill="#558CAA" opacity="1.000000" stroke="none" 
	d="
M430.167053,328.705872 
	C430.682770,328.132477 431.506287,327.547852 432.643860,326.966492 
	C432.130219,327.544708 431.302551,328.119659 430.167053,328.705872 
z"/>
<path fill="#14DCC2" opacity="1.000000" stroke="none" 
	d="
M423.189636,184.765594 
	C422.488403,185.142548 421.785065,185.258957 420.631989,185.010559 
	C420.119995,184.410995 420.057678,184.176254 419.995392,183.941513 
	C420.794891,183.945160 421.594421,183.948822 422.797302,183.968292 
	C423.196289,184.157761 423.191895,184.331406 423.189636,184.765594 
z"/>
<path fill="#4DAB4F" opacity="1.000000" stroke="none" 
	d="
M47.650856,235.549957 
	C47.990223,235.557861 48.452282,235.811371 49.046127,236.299866 
	C48.709793,236.288422 48.241669,236.041977 47.650856,235.549957 
z"/>
<path fill="#4DAB4F" opacity="1.000000" stroke="none" 
	d="
M27.547852,218.768951 
	C27.407864,219.096237 26.982683,219.474365 26.270647,219.900940 
	C26.410082,219.572845 26.836370,219.196335 27.547852,218.768951 
z"/>
<path fill="#558CAA" opacity="1.000000" stroke="none" 
	d="
M83.416626,327.823853 
	C83.752777,327.807556 84.240730,328.013611 84.859695,328.452576 
	C84.516617,328.472382 84.042534,328.259308 83.416626,327.823853 
z"/>
<path fill="#558CAA" opacity="1.000000" stroke="none" 
	d="
M85.418991,328.984741 
	C85.570503,328.739502 85.815979,328.779236 86.133415,329.129883 
	C85.973618,329.337830 85.742805,329.280792 85.418991,328.984741 
z"/>
<path fill="#4DAB4F" opacity="1.000000" stroke="none" 
	d="
M28.729713,225.551483 
	C28.868753,225.449158 29.217241,225.520126 29.779505,225.751404 
	C29.641909,225.849411 29.290535,225.787094 28.729713,225.551483 
z"/>
<path fill="#4DAC4F" opacity="1.000000" stroke="none" 
	d="
M458.518585,203.984940 
	C458.553192,204.122162 458.103882,203.972061 458.035278,203.873291 
	C458.159424,203.655807 458.331879,203.680206 458.518585,203.984940 
z"/>
<path fill="#4DAB4F" opacity="1.000000" stroke="none" 
	d="
M30.210772,226.160797 
	C30.401379,226.027603 30.641830,226.169891 30.938786,226.580948 
	C30.746754,226.722778 30.501863,226.584961 30.210772,226.160797 
z"/>
<path fill="#10DDC7" opacity="1.000000" stroke="none" 
	d="
M419.736511,183.726166 
	C420.057678,184.176254 420.119995,184.410995 420.276947,184.998901 
	C420.371613,185.352036 420.277893,185.352692 419.894226,185.281586 
	C418.339600,186.125214 417.168671,187.039932 415.997742,187.954651 
	C415.654694,188.143585 415.311676,188.332520 414.443665,188.261414 
	C412.937225,186.337280 411.955750,184.673172 410.072205,181.479568 
	C409.092194,184.087616 408.544861,185.544113 407.622314,187.000305 
	C406.496552,186.998978 405.746002,186.997971 404.935974,186.649612 
	C403.593597,185.392654 402.323608,183.734009 401.025543,183.711761 
	C396.883301,183.640747 393.838379,185.561737 392.621582,189.971359 
	C390.933197,188.922363 388.708160,188.023453 388.550293,186.847061 
	C388.367249,185.483688 389.637482,183.154510 390.914490,182.512100 
	C394.571289,180.672516 398.550629,179.474152 402.278687,178.070541 
	C399.703613,175.342743 396.543304,172.995514 392.510071,175.819946 
	C390.722412,174.188263 389.350922,172.763519 387.807373,171.559372 
	C382.766785,167.627106 377.259583,164.467926 371.783844,161.191711 
	C365.645660,157.519150 359.344147,155.121811 352.766693,152.879105 
	C350.289459,152.034424 346.952972,151.376938 345.754822,149.511993 
	C340.175171,140.826981 330.342072,140.265656 322.181274,136.815094 
	C319.395844,135.637344 316.875702,134.774704 314.292389,132.924240 
	C311.614014,131.005692 309.945618,126.179733 303.809174,128.180817 
	C305.781769,129.998276 307.241028,131.084213 308.339050,132.458740 
	C308.926147,133.193665 308.890320,134.426193 309.135620,135.434158 
	C308.388580,135.594040 307.561676,136.046555 306.907074,135.867828 
	C301.301117,134.337479 299.160065,130.344299 301.250183,125.494293 
	C296.583496,122.839851 293.965118,116.297852 286.854523,117.715576 
	C285.336273,116.457291 283.963531,115.483131 282.590759,114.508972 
	C282.299927,115.117172 282.009064,115.725380 281.718231,116.333580 
	C283.478821,116.889153 285.239410,117.444733 287.108521,118.301178 
	C287.847931,120.949821 287.028900,123.468330 284.672058,121.821312 
	C281.927643,119.903435 275.146820,120.334602 277.972626,113.535484 
	C278.175262,113.047829 276.696808,111.861488 275.761566,110.751160 
	C274.015411,110.001343 272.507721,109.500366 270.862183,108.714272 
	C269.482910,107.286110 268.241455,106.143051 266.708191,104.813179 
	C264.345795,103.577843 262.284363,102.510788 260.202850,101.484505 
	C255.306335,99.070305 248.961731,101.728424 246.661377,107.091927 
	C243.110641,108.103241 241.253662,109.799820 241.655869,113.579994 
	C241.804688,114.978767 240.591827,116.522423 239.666763,117.999947 
	C238.889206,117.999832 238.444901,117.999763 237.829224,117.772644 
	C237.105453,117.030296 236.553024,116.514999 235.899231,115.659676 
	C232.392105,112.114502 229.825226,112.507301 226.624435,117.229774 
	C228.261658,117.518509 229.630219,117.759865 231.104401,118.275101 
	C230.690903,119.739159 230.379288,121.774185 229.614075,121.962097 
	C227.257004,122.540939 224.703354,122.701897 222.267944,122.505730 
	C215.594681,121.968216 213.320908,123.525917 211.639160,130.058716 
	C210.795029,133.337738 209.014648,132.987213 206.904205,130.666290 
	C205.321487,129.741425 203.394547,128.256119 202.430374,128.729935 
	C199.739944,130.052109 197.448410,132.185974 194.621933,134.022766 
	C189.776733,136.138397 184.018585,136.668213 182.471817,142.524246 
	C181.352264,146.762772 179.502335,147.682632 175.713531,145.460861 
	C174.763947,144.904022 172.944717,144.851120 172.014389,145.398346 
	C165.630402,149.153458 159.204147,152.884445 153.152328,157.136734 
	C150.052612,159.314713 150.695404,161.911942 154.042084,163.639481 
	C154.995453,164.131622 155.959045,164.604004 156.917953,165.085449 
	C155.160416,166.268387 153.467361,166.561768 151.935455,166.190414 
	C150.214386,165.773193 148.638855,164.755722 146.716507,163.770660 
	C143.622009,163.361237 140.810989,163.180542 137.714813,163.137680 
	C136.286407,164.517197 135.143204,165.758896 133.614456,167.021835 
	C130.790665,167.979385 128.212234,168.673019 125.978485,169.963348 
	C124.990784,170.533905 124.701469,172.313492 124.095108,173.544205 
	C125.593513,173.831879 127.178116,174.566422 128.569260,174.298080 
	C130.456863,173.933960 132.196365,172.802017 134.322235,172.085358 
	C135.096725,174.114014 135.548355,176.056702 135.571564,177.999390 
	C133.428940,177.999390 131.714737,177.999390 129.714783,177.874298 
	C125.619652,179.832809 121.810287,181.916412 117.904457,184.291672 
	C117.204857,185.389511 116.601723,186.195663 115.595284,186.993195 
	C112.026863,186.881470 108.849434,186.566223 105.700882,186.748810 
	C103.548470,186.873611 101.436317,187.692673 99.306168,188.201355 
	C99.306168,188.201355 98.850494,188.307129 98.850494,188.307129 
	C98.850494,188.307129 98.393242,188.208405 98.003716,187.816788 
	C96.860168,186.990662 96.106148,186.556152 95.352127,186.121643 
	C95.352127,186.121643 95.194717,186.276154 95.092857,185.867584 
	C94.990570,184.959335 94.990143,184.459656 94.989716,183.959991 
	C98.153191,181.876083 101.170471,179.515549 104.504158,177.753738 
	C124.305214,167.289154 144.202530,157.006836 164.017288,146.567993 
	C171.368439,142.695267 178.530807,138.464783 185.872314,134.572952 
	C200.230667,126.961365 214.681030,119.523338 229.037704,111.908630 
	C234.622726,108.946358 240.358078,106.124931 245.491745,102.486938 
	C253.609985,96.733887 260.830505,97.968124 269.029114,102.680717 
	C282.673218,110.523407 296.898193,117.349693 310.791534,124.766983 
	C318.856812,129.072815 326.701843,133.789581 334.737091,138.153687 
	C344.507111,143.459991 354.386230,148.564987 364.194397,153.801575 
	C379.426544,161.934021 394.640930,170.099731 409.857300,178.261749 
	C413.076385,179.988464 416.271484,181.759949 419.736511,183.726166 
M114.940239,177.476471 
	C113.963066,177.579453 112.798141,177.383820 112.051422,177.853333 
	C110.841278,178.614243 109.905525,179.811539 108.853920,180.824600 
	C110.565231,181.362381 112.405067,182.511658 113.935745,182.189957 
	C114.748398,182.019165 115.024780,179.296783 114.940239,177.476471 
z"/>
<path fill="#14DCC2" opacity="1.000000" stroke="none" 
	d="
M94.716812,184.062592 
	C94.990143,184.459656 94.990570,184.959335 94.987656,185.834442 
	C94.432045,185.982132 93.879776,185.754364 93.136322,185.290344 
	C93.444733,184.757797 93.944321,184.461487 94.716812,184.062592 
z"/>
<path fill="#D4BD2F" opacity="1.000000" stroke="none" 
	d="
M421.756683,328.840637 
	C419.517303,331.210785 416.977966,333.394623 414.307190,335.906006 
	C414.175751,336.233582 414.116394,336.140411 413.940796,336.242432 
	C413.513062,336.575226 413.260895,336.805969 413.008728,337.036743 
	C413.008728,337.036743 413.001312,336.993378 412.619446,337.000366 
	C403.080200,341.663391 393.918121,346.310272 384.784851,351.013062 
	C384.462433,351.179077 384.425812,351.900024 384.255981,352.362366 
	C384.255981,352.362366 384.191620,352.325623 383.856598,352.276764 
	C382.445770,352.956604 381.369965,353.685303 380.294159,354.414032 
	C380.294159,354.414032 380.230377,354.385956 379.868683,354.339722 
	C379.012512,354.352386 378.453613,354.281097 378.033112,354.489349 
	C370.006592,358.464783 361.970978,362.424194 354.020172,366.546875 
	C353.184631,366.980103 352.869019,368.416016 352.312164,369.386749 
	C352.312164,369.386749 352.210327,369.399750 351.833282,369.319641 
	C343.640259,369.016083 339.067505,374.531616 333.971161,379.120667 
	C333.971161,379.120667 333.818420,379.272278 333.293457,379.264465 
	C326.877136,381.268494 320.682587,382.678314 315.174835,385.451996 
	C308.971893,388.575806 303.360260,392.887726 297.570862,396.800385 
	C296.877380,397.269104 296.680786,398.473022 296.253906,399.336182 
	C296.253906,399.336182 296.189758,399.308685 295.882935,399.286285 
	C294.716217,399.850006 293.856293,400.436127 292.996399,401.022247 
	C292.996399,401.022247 292.816833,401.205322 292.269409,401.190430 
	C287.810394,403.413757 283.898743,405.651978 279.987122,407.890198 
	C279.987122,407.890198 279.818146,408.079193 279.412598,408.196625 
	C278.667419,408.541046 278.327789,408.768036 277.988190,408.995056 
	C277.988190,408.995056 277.793610,409.182159 277.255737,409.175110 
	C272.068329,409.246735 267.883636,409.640350 264.426941,413.850922 
	C261.543671,417.363007 257.072357,417.819550 252.597092,415.828491 
	C250.687607,414.978943 248.518570,414.712769 246.467468,414.181519 
	C246.467468,414.181519 246.192551,414.177765 246.021561,413.733154 
	C243.848480,411.370758 242.099838,409.030579 239.781662,407.639496 
	C236.720032,405.802368 233.241348,404.634369 229.887726,403.316772 
	C226.362427,401.931732 222.773102,400.709534 219.211761,399.416199 
	C219.211761,399.416199 218.750687,399.443085 218.750687,399.443085 
	C218.750687,399.443085 218.330154,399.252106 218.096542,398.742004 
	C215.177765,396.477081 212.635300,394.432129 209.778336,393.026459 
	C203.431580,389.903839 196.927277,387.101440 190.487198,384.168488 
	C190.487198,384.168488 190.203384,384.149475 189.964844,383.742798 
	C186.375854,381.705780 183.025391,380.075439 179.674927,378.445068 
	C179.674927,378.445068 179.743744,378.433136 179.604187,378.134888 
	C174.428375,373.875916 169.533691,369.631409 162.620407,369.432892 
	C162.620407,369.432892 162.711945,369.450134 162.615326,369.109528 
	C160.136444,367.151794 157.876923,365.305328 155.352371,363.954010 
	C136.135956,353.667877 116.884140,343.447327 97.588974,333.309845 
	C95.769089,332.353699 93.575287,332.109253 91.555099,331.534363 
	C91.555099,331.534363 91.492928,331.584839 91.463539,331.558228 
	C93.397820,329.630768 95.109764,327.332855 97.370049,325.899963 
	C105.786453,320.564514 114.323730,315.409180 122.981232,310.476929 
	C124.164871,309.802612 126.360474,310.532440 127.953934,311.035400 
	C130.441025,311.820496 132.813828,312.967682 135.617950,313.981079 
	C136.000839,314.000702 135.996109,314.008240 136.161926,314.294098 
	C141.235901,317.041870 146.144058,319.503784 151.284058,322.008942 
	C151.515869,322.052185 151.977768,322.147583 152.110214,322.451050 
	C154.890747,324.125641 157.538818,325.496704 160.395111,326.894196 
	C160.603333,326.920593 161.014267,327.006165 161.142563,327.323578 
	C162.832657,328.437256 164.394455,329.233490 166.265839,330.124878 
	C167.714905,330.821594 168.854416,331.423126 170.167084,332.292267 
	C171.277222,333.004608 172.214188,333.449371 173.363510,333.915833 
	C173.575867,333.937500 173.996429,334.010956 174.126923,334.329224 
	C176.527557,335.749054 178.797729,336.850647 181.399658,338.059753 
	C205.246826,350.661591 228.786682,363.110260 252.251587,375.698639 
	C255.841766,377.624695 258.892242,377.695892 262.522064,375.709351 
	C283.542847,364.204834 304.622742,352.806396 325.766571,341.529449 
	C335.291290,336.449463 345.010345,331.733795 354.997437,326.802124 
	C356.567474,325.841156 357.781372,324.930847 359.261292,323.868683 
	C360.300507,323.468384 361.073700,323.219971 362.042877,322.832123 
	C362.492004,322.498322 362.731567,322.288513 363.251678,321.884216 
	C365.709167,320.490387 367.872589,319.275574 370.295227,318.144836 
	C371.701935,317.484711 372.849457,316.740509 374.264862,315.817261 
	C375.685822,315.086639 376.838959,314.535004 378.196014,314.047516 
	C378.932953,313.744080 379.465942,313.376495 380.256622,312.857758 
	C381.241760,312.410675 381.969208,312.114716 382.696655,311.818787 
	C386.599487,312.794128 390.775696,313.185364 394.351776,314.858917 
	C403.528900,319.153656 412.439545,324.017792 421.756683,328.840637 
z"/>
<path fill="#C8BB3C" opacity="1.000000" stroke="none" 
	d="
M91.770920,331.785034 
	C93.575287,332.109253 95.769089,332.353699 97.588974,333.309845 
	C116.884140,343.447327 136.135956,353.667877 155.352371,363.954010 
	C157.876923,365.305328 160.136444,367.151794 162.573792,369.130585 
	C143.599472,359.440308 124.566399,349.395264 105.543297,339.331451 
	C101.007393,336.931793 96.504715,334.469299 91.770920,331.785034 
z"/>
<path fill="#C8BB3C" opacity="1.000000" stroke="none" 
	d="
M296.612305,399.285858 
	C296.680786,398.473022 296.877380,397.269104 297.570862,396.800385 
	C303.360260,392.887726 308.971893,388.575806 315.174835,385.451996 
	C320.682587,382.678314 326.877136,381.268494 333.191589,379.229828 
	C321.399963,385.880493 309.185333,392.558014 296.612305,399.285858 
z"/>
<path fill="#C8BB3C" opacity="1.000000" stroke="none" 
	d="
M246.724518,414.437592 
	C248.518570,414.712769 250.687607,414.978943 252.597092,415.828491 
	C257.072357,417.819550 261.543671,417.363007 264.426941,413.850922 
	C267.883636,409.640350 272.068329,409.246735 277.120758,409.174225 
	C271.661102,412.503876 265.949951,416.158173 259.845184,418.952393 
	C257.976227,419.807861 254.937469,418.574341 252.600327,417.797974 
	C250.603973,417.134827 248.845352,415.755981 246.724518,414.437592 
z"/>
<path fill="#C8BB3C" opacity="1.000000" stroke="none" 
	d="
M219.434555,399.692078 
	C222.773102,400.709534 226.362427,401.931732 229.887726,403.316772 
	C233.241348,404.634369 236.720032,405.802368 239.781662,407.639496 
	C242.099838,409.030579 243.848480,411.370758 245.926270,413.634094 
	C237.220413,409.309082 228.438889,404.638519 219.434555,399.692078 
z"/>
<path fill="#C8BB3C" opacity="1.000000" stroke="none" 
	d="
M384.612976,352.294189 
	C384.425812,351.900024 384.462433,351.179077 384.784851,351.013062 
	C393.918121,346.310272 403.080200,341.663391 412.635498,337.015503 
	C403.678955,342.091095 394.324463,347.158569 384.612976,352.294189 
z"/>
<path fill="#C8BB3C" opacity="1.000000" stroke="none" 
	d="
M352.665710,369.333405 
	C352.869019,368.416016 353.184631,366.980103 354.020172,366.546875 
	C361.970978,362.424194 370.006592,358.464783 378.033112,354.489349 
	C378.453613,354.281097 379.012512,354.352386 379.897583,354.320312 
	C371.198578,359.324768 362.108917,364.302399 352.665710,369.333405 
z"/>
<path fill="#C8BB3C" opacity="1.000000" stroke="none" 
	d="
M190.723297,384.437744 
	C196.927277,387.101440 203.431580,389.903839 209.778336,393.026459 
	C212.635300,394.432129 215.177765,396.477081 217.941162,398.571198 
	C208.999390,394.175995 199.979401,389.441498 190.723297,384.437744 
z"/>
<path fill="#C8BB3C" opacity="1.000000" stroke="none" 
	d="
M334.339966,379.095276 
	C339.067505,374.531616 343.640259,369.016083 351.878265,369.295319 
	C346.436462,372.590668 340.572632,375.830261 334.339966,379.095276 
z"/>
<path fill="#C8BB3C" opacity="1.000000" stroke="none" 
	d="
M162.834045,369.685242 
	C169.533691,369.631409 174.428375,373.875916 179.598007,378.169250 
	C174.170151,375.647095 168.608917,372.792358 162.834045,369.685242 
z"/>
<path fill="#C8BB3C" opacity="1.000000" stroke="none" 
	d="
M280.342102,407.845428 
	C283.898743,405.651978 287.810394,403.413757 292.141663,401.179810 
	C288.606537,403.389587 284.651825,405.595123 280.342102,407.845428 
z"/>
<path fill="#C8BB3C" opacity="1.000000" stroke="none" 
	d="
M179.887390,378.699097 
	C183.025391,380.075439 186.375854,381.705780 189.869659,383.637146 
	C186.708618,382.276459 183.404236,380.614807 179.887390,378.699097 
z"/>
<path fill="#C8BB3C" opacity="1.000000" stroke="none" 
	d="
M380.620361,354.375732 
	C381.369965,353.685303 382.445770,352.956604 383.891174,352.263428 
	C383.156036,352.978424 382.051300,353.657928 380.620361,354.375732 
z"/>
<path fill="#C8BB3C" opacity="1.000000" stroke="none" 
	d="
M293.313843,400.997192 
	C293.856293,400.436127 294.716217,399.850006 295.912567,399.267822 
	C295.376434,399.838531 294.503845,400.405334 293.313843,400.997192 
z"/>
<path fill="#C8BB3C" opacity="1.000000" stroke="none" 
	d="
M413.275848,336.973267 
	C413.260895,336.805969 413.513062,336.575226 413.984619,336.208801 
	C413.983673,336.352020 413.763336,336.630920 413.275848,336.973267 
z"/>
<path fill="#C8BB3C" opacity="1.000000" stroke="none" 
	d="
M278.305298,408.942017 
	C278.327789,408.768036 278.667419,408.541046 279.286621,408.182343 
	C279.251617,408.330078 278.936981,408.609558 278.305298,408.942017 
z"/>
<path fill="#6EC610" opacity="1.000000" stroke="none" 
	d="
M421.872131,258.621704 
	C411.439270,264.774139 400.851746,270.659332 390.233795,276.489166 
	C379.462830,282.403015 368.661804,288.262177 357.338287,294.477997 
	C355.184845,295.593262 353.567047,296.375793 351.667603,297.247192 
	C350.793640,297.860229 350.201355,298.384430 349.447021,298.919189 
	C349.285004,298.929749 348.980072,299.041382 348.676575,299.142883 
	C347.731842,299.805573 347.090668,300.366730 346.088379,300.891174 
	C344.174011,301.383881 342.511444,301.709015 341.083771,302.473083 
	C315.459229,316.187378 289.829498,329.892944 264.290558,343.765442 
	C259.448853,346.395386 255.270462,346.526855 250.311096,343.795288 
	C234.443085,335.055237 218.379166,326.668243 202.331238,318.258759 
	C195.444397,314.649933 188.410721,311.321381 181.217773,307.598145 
	C178.997955,306.228455 177.004166,305.126099 174.771393,303.950500 
	C174.201843,303.799377 173.870743,303.797150 173.345642,303.603607 
	C172.109634,302.628326 171.067108,301.919983 169.727280,301.051392 
	C167.789230,300.231476 166.148499,299.571808 164.309479,298.664124 
	C163.419479,297.990204 162.727753,297.564301 161.798798,297.041779 
	C161.230331,296.889435 160.899124,296.833771 160.567902,296.778107 
	C156.630386,294.356506 152.799438,291.737152 148.737106,289.547119 
	C130.025818,279.459625 111.250038,269.491791 92.252625,259.247284 
	C97.570328,255.515915 102.976990,251.732651 108.734337,248.592316 
	C116.084946,244.582916 123.718689,241.092636 131.814636,237.436905 
	C149.782669,246.556824 167.213837,255.528976 184.538422,264.702393 
	C207.022507,276.607727 229.446045,288.628326 251.832779,300.715729 
	C255.389801,302.636322 258.520172,302.911194 262.100800,300.835083 
	C267.849670,297.501801 273.764282,294.452606 279.629761,291.322510 
	C301.188202,279.817841 322.721710,268.265717 344.333618,256.862244 
	C354.760712,251.360428 365.341431,246.149750 376.167725,240.742783 
	C377.333466,239.823013 378.183990,238.967697 379.320068,237.975403 
	C380.406799,237.583496 381.207947,237.328583 382.009125,237.073669 
	C392.741364,242.594772 403.495544,248.073990 414.190155,253.667038 
	C416.795227,255.029419 419.204681,256.765747 421.872131,258.621704 
z"/>
<path fill="#59B041" opacity="1.000000" stroke="none" 
	d="
M382.039917,236.760315 
	C381.207947,237.328583 380.406799,237.583496 379.017273,238.056320 
	C377.570160,239.118561 376.711365,239.962906 375.852570,240.807251 
	C365.341431,246.149750 354.760712,251.360428 344.333618,256.862244 
	C322.721710,268.265717 301.188202,279.817841 279.629761,291.322510 
	C273.764282,294.452606 267.849670,297.501801 262.100800,300.835083 
	C258.520172,302.911194 255.389801,302.636322 251.832779,300.715729 
	C229.446045,288.628326 207.022507,276.607727 184.538422,264.702393 
	C167.213837,255.528976 149.782669,246.556824 132.119995,237.286270 
	C131.869064,236.899521 131.897049,236.721710 131.961807,236.276520 
	C141.141891,231.427017 150.285202,226.844925 160.055344,222.086395 
	C161.119980,221.937027 161.557800,221.964081 162.007416,222.228912 
	C162.019211,222.466675 162.039963,222.942337 162.115738,223.152466 
	C162.793106,223.570297 163.394684,223.777969 164.339340,224.060440 
	C167.102798,225.209778 169.523209,226.284332 172.056046,227.385284 
	C172.168472,227.411667 172.272736,227.205597 172.493225,227.528870 
	C173.881500,228.380478 175.049301,228.908783 176.263611,229.404419 
	C176.310120,229.371735 176.249115,229.467682 176.458664,229.745392 
	C177.199783,230.420227 177.690414,230.893768 178.268768,231.203476 
	C203.462112,244.693970 228.618515,258.255554 253.950226,271.481354 
	C255.926834,272.513336 259.494080,271.913757 261.710175,270.825958 
	C271.101776,266.216034 280.312897,261.227600 289.493774,256.201813 
	C299.975586,250.463913 310.355286,244.539474 320.839966,238.711090 
	C320.900513,238.726105 320.953278,238.613022 321.315918,238.563782 
	C323.248291,237.942749 324.818024,237.370941 326.700623,236.744934 
	C327.674561,236.225632 328.335663,235.760513 329.213318,235.155609 
	C329.762146,234.939667 330.094452,234.863495 330.807373,234.786285 
	C332.452271,233.875824 333.716522,232.966431 335.236969,231.839569 
	C337.492798,230.693069 339.492401,229.764038 341.856812,228.800110 
	C343.477478,227.867920 344.733337,226.970596 346.196472,225.931915 
	C346.726868,225.716629 347.050018,225.642700 347.373138,225.568756 
	C358.643066,220.093094 366.783356,227.767731 375.680695,232.290756 
	C377.581055,233.256821 379.533630,234.120163 381.850708,235.118576 
	C382.183105,235.619873 382.126923,236.033432 382.039917,236.760315 
z"/>
<path fill="#A2A957" opacity="1.000000" stroke="none" 
	d="
M181.443771,307.865479 
	C188.410721,311.321381 195.444397,314.649933 202.331238,318.258759 
	C218.379166,326.668243 234.443085,335.055237 250.311096,343.795288 
	C255.270462,346.526855 259.448853,346.395386 264.290558,343.765442 
	C289.829498,329.892944 315.459229,316.187378 341.083771,302.473083 
	C342.511444,301.709015 344.174011,301.383881 346.400330,300.778351 
	C347.708984,300.148651 348.344543,299.595001 348.980072,299.041382 
	C348.980072,299.041382 349.285004,298.929749 349.742584,298.822327 
	C350.783173,298.196045 351.366211,297.677185 351.949249,297.158325 
	C353.567047,296.375793 355.184845,295.593262 357.115723,294.747101 
	C364.229645,298.773315 370.901459,303.106567 377.903351,306.816895 
	C380.253235,308.062073 383.443726,307.720856 386.644653,308.064911 
	C385.727875,309.123138 384.416473,310.221222 382.900879,311.569031 
	C381.969208,312.114716 381.241760,312.410675 379.985626,312.933472 
	C378.968658,313.434662 378.480377,313.709015 377.992065,313.983368 
	C376.838959,314.535004 375.685822,315.086639 373.945923,315.883545 
	C372.251434,316.772766 371.143738,317.416779 370.036041,318.060791 
	C367.872589,319.275574 365.709167,320.490387 363.053772,322.016876 
	C362.302948,322.520020 362.064636,322.734344 361.846893,322.971558 
	C361.073700,323.219971 360.300507,323.468384 358.937622,323.947388 
	C357.112427,325.069611 355.876831,325.961243 354.641266,326.852844 
	C345.010345,331.733795 335.291290,336.449463 325.766571,341.529449 
	C304.622742,352.806396 283.542847,364.204834 262.522064,375.709351 
	C258.892242,377.695892 255.841766,377.624695 252.251587,375.698639 
	C228.786682,363.110260 205.246826,350.661591 181.175812,337.809692 
	C178.412247,336.305054 176.204330,335.158020 173.996429,334.010986 
	C173.996429,334.010956 173.575867,333.937500 173.146057,333.690430 
	C171.808792,332.970459 170.901352,332.497589 169.993912,332.024689 
	C168.854416,331.423126 167.714905,330.821594 166.072647,329.860657 
	C164.051346,328.669556 162.532806,327.837860 161.014267,327.006165 
	C161.014267,327.006165 160.603333,326.920593 160.202621,326.620697 
	C157.193863,324.929718 154.585815,323.538666 151.977768,322.147583 
	C151.977768,322.147583 151.515869,322.052185 151.066559,321.750977 
	C145.743546,318.969299 140.869827,316.488770 135.996109,314.008240 
	C135.996109,314.008240 136.000839,314.000702 135.997238,314.003052 
	C134.488434,312.817413 132.983215,311.629364 131.241241,310.223083 
	C138.306915,305.660553 145.512375,301.136688 152.982407,297.102722 
	C154.770874,296.136932 157.440063,296.802032 160.136047,296.747559 
	C160.899124,296.833771 161.230331,296.889435 161.973190,297.292603 
	C163.092468,298.064087 163.800110,298.488129 164.507767,298.912140 
	C166.148499,299.571808 167.789230,300.231476 169.824936,301.366577 
	C171.326309,302.518188 172.432709,303.194366 173.539108,303.870544 
	C173.870743,303.797150 174.201843,303.799377 174.890686,304.281494 
	C177.313889,305.745697 179.378830,306.805573 181.443771,307.865479 
z"/>
<path fill="#C8BB3C" opacity="1.000000" stroke="none" 
	d="
M417.295471,293.104523 
	C424.779419,288.745178 432.546783,284.467377 440.657959,280.103210 
	C434.767303,287.204651 426.342438,290.496613 417.295471,293.104523 
z"/>
<path fill="#C8BB3C" opacity="1.000000" stroke="none" 
	d="
M392.072357,306.817932 
	C394.953705,304.722534 398.234131,302.620911 402.118835,300.219788 
	C404.874054,298.644897 407.024963,297.369537 409.175903,296.094177 
	C410.897034,295.469818 412.618164,294.845459 414.674805,294.148865 
	C407.497345,298.321686 399.984406,302.566711 392.072357,306.817932 
z"/>
<path fill="#10DDC7" opacity="1.000000" stroke="none" 
	d="
M176.249115,229.467682 
	C176.249115,229.467682 176.310120,229.371735 176.005066,229.102280 
	C174.557602,228.290405 173.415176,227.748001 172.272736,227.205597 
	C172.272736,227.205597 172.168472,227.411667 172.102310,226.995728 
	C172.675552,223.261856 172.715012,220.168549 168.865967,218.666245 
	C165.405090,217.315460 163.593445,219.450989 161.995605,221.991135 
	C161.557800,221.964081 161.119980,221.937027 160.352982,221.897690 
	C159.788223,221.568329 159.552658,221.251251 158.956299,220.455597 
	C157.515320,219.345779 156.435135,218.714554 155.354965,218.083313 
	C155.354965,218.083313 155.231705,218.289200 155.012756,217.898407 
	C152.977051,216.735626 151.160294,215.963638 149.343536,215.191650 
	C149.343536,215.191666 149.320709,215.205811 148.994415,215.002380 
	C148.258362,214.536560 147.848587,214.274185 147.438812,214.011810 
	C147.438812,214.011810 147.275665,214.219482 147.023972,213.868546 
	C143.512772,211.138947 140.419403,208.465759 136.928925,206.496506 
	C134.962036,205.386856 132.340637,205.437332 130.014084,204.965195 
	C129.468750,204.805466 128.923431,204.645721 128.124557,203.929382 
	C126.249649,201.915665 124.628288,200.458557 123.005524,198.667847 
	C123.002335,197.889465 123.000557,197.444656 123.126328,196.692871 
	C125.565300,195.816650 127.876732,195.247437 130.188156,194.678207 
	C130.418137,195.173065 130.648117,195.667938 130.878098,196.162796 
	C132.251801,194.128510 133.563248,192.047989 135.024902,190.079010 
	C135.780807,189.060745 136.659775,187.708755 137.729416,187.420044 
	C143.131592,185.962051 147.726059,183.567856 152.541214,180.412033 
	C157.330902,177.272888 163.472183,175.713486 168.813873,172.444336 
	C176.290207,167.868774 184.842773,165.052826 192.926987,161.466278 
	C193.372894,161.268463 193.725464,160.870071 194.157074,160.628738 
	C201.258926,156.658051 208.391052,152.740768 215.462311,148.716476 
	C218.944489,146.734741 224.130234,146.831146 224.091187,140.635315 
	C224.052963,134.570557 224.939148,133.831528 231.299271,134.070221 
	C239.068207,134.361801 246.457993,133.432083 253.668762,130.270584 
	C257.628296,128.534546 261.978363,127.492905 266.259369,126.789879 
	C267.814972,126.534416 270.897339,127.852196 271.198975,128.999893 
	C272.628113,134.437744 276.616913,134.123657 280.658936,133.995865 
	C284.267334,133.881775 286.541718,134.870239 287.292603,139.018555 
	C287.587952,140.650253 290.064697,142.317596 291.916077,143.129410 
	C294.291351,144.170914 298.027435,143.498444 299.429199,145.097122 
	C302.942322,149.103897 307.124481,149.153748 311.631287,149.029465 
	C315.446869,148.924255 316.597839,150.965500 317.186981,154.529938 
	C317.549927,156.725754 319.354980,159.874191 321.167175,160.419571 
	C326.952057,162.160431 333.002411,163.391815 339.025848,163.872467 
	C346.484589,164.467651 346.882690,164.549500 346.847687,171.932922 
	C346.840332,173.484711 347.803375,176.252533 348.682098,176.407898 
	C356.617950,177.811020 362.359283,183.748215 369.611755,186.218124 
	C374.364685,187.836792 377.353271,190.393555 379.070801,194.833969 
	C380.449768,198.399109 382.702209,198.240097 385.348969,196.341125 
	C390.975159,192.304504 391.594452,192.544968 393.532257,199.617691 
	C393.532257,199.617691 393.418121,199.615036 393.029541,199.497772 
	C390.424500,200.962341 388.208038,202.544159 385.991577,204.125977 
	C385.751129,204.355484 385.464691,204.469696 384.559570,204.306366 
	C379.609100,203.099289 377.687561,205.905334 376.072693,209.192123 
	C375.465576,209.576996 374.858429,209.961868 373.527466,210.285919 
	C364.627594,210.520432 358.383118,214.150345 354.053528,221.086029 
	C354.053528,221.086029 354.017883,221.035400 353.889648,221.111176 
	C353.554321,221.302094 353.355286,221.429749 353.164276,221.569946 
	C352.705841,221.736771 352.247406,221.903595 351.340424,221.768494 
	C350.373474,219.959106 349.855072,218.451660 349.006195,215.983292 
	C347.836212,218.067261 347.194946,219.209457 346.901062,219.732864 
	C342.385315,216.953064 338.155975,214.449844 334.045044,211.765244 
	C332.583099,210.810516 330.840027,209.654083 330.218079,208.172852 
	C328.789062,204.769592 326.285553,204.089417 323.052338,203.950134 
	C320.955750,203.859818 317.509918,203.780716 317.031311,202.674438 
	C314.494446,196.810471 309.652222,196.827240 304.614380,196.666504 
	C303.703827,196.637451 302.415405,196.147476 301.982971,195.448608 
	C299.341278,191.179047 294.920105,190.323822 290.648560,188.913635 
	C288.710541,188.273804 287.189972,186.464737 285.340302,185.437775 
	C283.030334,184.155243 280.623962,183.013092 278.170532,182.032104 
	C275.940948,181.140594 272.541870,181.260330 271.479004,179.696701 
	C266.954193,173.040100 260.612793,173.475983 253.850815,173.620605 
	C244.860291,173.812897 239.574234,180.897964 232.467453,184.511703 
	C227.933975,186.816925 223.886154,189.290970 218.601562,189.091782 
	C216.735413,189.021469 213.731155,189.348145 213.125641,190.490036 
	C209.327927,197.651855 200.996948,198.940140 195.929001,204.341629 
	C195.200989,205.117538 193.860367,205.753799 192.820633,205.728912 
	C187.507004,205.601730 183.410202,207.170105 179.133926,210.904266 
	C173.875275,215.496323 173.485947,214.655426 175.567307,221.534866 
	C176.294479,223.938370 179.249725,226.595856 176.249115,229.467682 
M160.874207,216.918167 
	C160.874207,216.918167 161.115936,217.100464 161.115936,217.100464 
	C161.115936,217.100464 160.967026,216.839020 160.874207,216.918167 
z"/>
<path fill="#14DCC2" opacity="1.000000" stroke="none" 
	d="
M99.512634,188.498627 
	C101.436317,187.692673 103.548470,186.873611 105.700882,186.748810 
	C108.849434,186.566223 112.026863,186.881470 115.766693,187.220093 
	C116.893394,187.971237 117.445381,188.486832 117.998001,189.335327 
	C117.999268,190.112091 117.999886,190.555969 117.707779,191.121277 
	C116.609840,191.495163 115.804611,191.747635 114.711266,191.799988 
	C111.484215,189.843338 108.444656,186.473114 105.967880,192.127167 
	C103.884956,191.016739 101.802025,189.906326 99.512634,188.498627 
z"/>
<path fill="#14DCC2" opacity="1.000000" stroke="none" 
	d="
M130.252777,205.209610 
	C132.340637,205.437332 134.962036,205.386856 136.928925,206.496506 
	C140.419403,208.465759 143.512772,211.138947 146.893036,213.851593 
	C141.506348,211.275055 135.998901,208.364548 130.252777,205.209610 
z"/>
<path fill="#11DCC5" opacity="1.000000" stroke="none" 
	d="
M114.999390,192.000107 
	C115.804611,191.747635 116.609840,191.495163 117.866142,191.420105 
	C119.211487,193.065018 120.105743,194.532501 121.234711,196.153625 
	C121.979202,196.538116 122.488991,196.768997 122.998779,196.999863 
	C123.000557,197.444656 123.002335,197.889465 122.997932,199.023376 
	C122.982460,200.186752 122.973167,200.661011 122.963867,201.135269 
	C121.774651,200.640228 120.585426,200.145172 118.994598,199.118744 
	C117.836296,198.100418 117.079605,197.613464 116.322906,197.126526 
	C116.322906,197.126526 115.871452,197.268921 115.871452,197.268921 
	C115.871452,197.268921 115.406174,197.181747 115.206009,196.733704 
	C115.003586,195.855057 115.001335,195.424484 114.999237,194.619675 
	C114.999390,193.497009 114.999390,192.748550 114.999390,192.000107 
z"/>
<path fill="#10DDC7" opacity="1.000000" stroke="none" 
	d="
M114.711266,191.799988 
	C114.999390,192.748550 114.999390,193.497009 114.680847,194.513870 
	C112.236267,194.195236 110.110214,193.608185 107.984169,193.021133 
	C107.449989,192.853287 106.915810,192.685440 106.174759,192.322388 
	C108.444656,186.473114 111.484215,189.843338 114.711266,191.799988 
z"/>
<path fill="#14DCC2" opacity="1.000000" stroke="none" 
	d="
M123.161530,201.393097 
	C122.973167,200.661011 122.982460,200.186752 122.999344,199.356964 
	C124.628288,200.458557 126.249649,201.915665 127.913284,203.734344 
	C126.423439,203.280914 124.891312,202.465927 123.161530,201.393097 
z"/>
<path fill="#14DCC2" opacity="1.000000" stroke="none" 
	d="
M108.200249,193.276382 
	C110.110214,193.608185 112.236267,194.195236 114.680695,194.888092 
	C115.001335,195.424484 115.003586,195.855057 115.005341,196.608231 
	C112.808670,195.797760 110.612503,194.664688 108.200249,193.276382 
z"/>
<path fill="#14DCC2" opacity="1.000000" stroke="none" 
	d="
M149.580582,215.473160 
	C151.160294,215.963638 152.977051,216.735626 154.893311,217.887131 
	C153.267746,217.429337 151.542694,216.592010 149.580582,215.473160 
z"/>
<path fill="#14DCC2" opacity="1.000000" stroke="none" 
	d="
M155.492447,218.385040 
	C156.435135,218.714554 157.515320,219.345779 158.776901,220.218887 
	C157.848846,219.869431 156.739395,219.278091 155.492447,218.385040 
z"/>
<path fill="#14DCC2" opacity="1.000000" stroke="none" 
	d="
M95.531860,186.407211 
	C96.106148,186.556152 96.860168,186.990662 97.804924,187.693588 
	C97.234306,187.538925 96.472954,187.115860 95.531860,186.407211 
z"/>
<path fill="#14DCC2" opacity="1.000000" stroke="none" 
	d="
M116.486084,197.434387 
	C117.079605,197.613464 117.836296,198.100418 118.769829,198.881393 
	C118.180870,198.697693 117.415070,198.219971 116.486084,197.434387 
z"/>
<path fill="#14DCC2" opacity="1.000000" stroke="none" 
	d="
M147.668579,214.313049 
	C147.848587,214.274185 148.258362,214.536560 148.981140,215.000351 
	C148.828888,215.005936 148.363617,214.810120 147.668579,214.313049 
z"/>
<path fill="#14DCC2" opacity="1.000000" stroke="none" 
	d="
M176.458664,229.745392 
	C179.249725,226.595856 176.294479,223.938370 175.567307,221.534866 
	C173.485947,214.655426 173.875275,215.496323 179.133926,210.904266 
	C183.410202,207.170105 187.507004,205.601730 192.820633,205.728912 
	C193.860367,205.753799 195.200989,205.117538 195.929001,204.341629 
	C200.996948,198.940140 209.327927,197.651855 213.125641,190.490036 
	C213.731155,189.348145 216.735413,189.021469 218.601562,189.091782 
	C223.886154,189.290970 227.933975,186.816925 232.467453,184.511703 
	C239.574234,180.897964 244.860291,173.812897 253.850815,173.620605 
	C260.612793,173.475983 266.954193,173.040100 271.479004,179.696701 
	C272.541870,181.260330 275.940948,181.140594 278.170532,182.032104 
	C280.623962,183.013092 283.030334,184.155243 285.340302,185.437775 
	C287.189972,186.464737 288.710541,188.273804 290.648560,188.913635 
	C294.920105,190.323822 299.341278,191.179047 301.982971,195.448608 
	C302.415405,196.147476 303.703827,196.637451 304.614380,196.666504 
	C309.652222,196.827240 314.494446,196.810471 317.031311,202.674438 
	C317.509918,203.780716 320.955750,203.859818 323.052338,203.950134 
	C326.285553,204.089417 328.789062,204.769592 330.218079,208.172852 
	C330.840027,209.654083 332.583099,210.810516 334.045044,211.765244 
	C338.155975,214.449844 342.385315,216.953064 346.901062,219.732864 
	C347.194946,219.209457 347.836212,218.067261 349.006195,215.983292 
	C349.855072,218.451660 350.373474,219.959106 350.976807,221.816681 
	C349.971649,223.141266 348.881561,224.115723 347.582336,225.329468 
	C347.050018,225.642700 346.726868,225.716629 345.866821,225.988403 
	C344.050629,227.069153 342.771332,227.952087 341.492035,228.835007 
	C339.492401,229.764038 337.492798,230.693069 334.904907,231.894257 
	C333.020020,233.040054 331.723389,233.913681 330.426758,234.787323 
	C330.094452,234.863495 329.762146,234.939667 328.903564,235.181702 
	C327.714111,235.831436 327.050934,236.315292 326.387756,236.799133 
	C324.818024,237.370941 323.248291,237.942749 321.446289,238.229126 
	C322.177917,236.695267 323.141785,235.446854 324.570831,233.595993 
	C321.904114,232.423798 319.708099,231.458527 317.512085,230.493240 
	C317.315979,230.791855 317.119873,231.090454 316.923767,231.389053 
	C318.208954,233.824738 319.494171,236.260422 320.779388,238.696106 
	C310.355286,244.539474 299.975586,250.463913 289.493774,256.201813 
	C280.312897,261.227600 271.101776,266.216034 261.710175,270.825958 
	C259.494080,271.913757 255.926834,272.513336 253.950226,271.481354 
	C228.618515,258.255554 203.462112,244.693970 178.268768,231.203476 
	C177.690414,230.893768 177.199783,230.420227 176.458664,229.745392 
z"/>
<path fill="#11DCC5" opacity="1.000000" stroke="none" 
	d="
M123.126328,196.692871 
	C122.488991,196.768997 121.979202,196.538116 121.329178,195.803467 
	C121.909760,192.515274 124.215469,189.694778 120.921021,186.678665 
	C119.894997,185.571579 118.947960,184.785782 118.000916,184.000000 
	C121.810287,181.916412 125.619652,179.832809 129.644135,178.164856 
	C130.941452,179.620880 132.023621,180.661240 133.105804,181.701614 
	C134.070541,180.467545 135.035263,179.233459 136.000000,177.999390 
	C135.548355,176.056702 135.096725,174.114014 134.322388,171.668793 
	C133.999771,169.777725 133.999893,168.389160 134.000000,167.000610 
	C135.143204,165.758896 136.286407,164.517197 137.803024,163.477539 
	C141.456360,167.699509 143.510117,167.773956 147.000000,163.999405 
	C148.638855,164.755722 150.214386,165.773193 151.935455,166.190414 
	C153.467361,166.561768 155.160416,166.268387 156.917953,165.085449 
	C155.959045,164.604004 154.995453,164.131622 154.042084,163.639481 
	C150.695404,161.911942 150.052612,159.314713 153.152328,157.136734 
	C159.204147,152.884445 165.630402,149.153458 172.014389,145.398346 
	C172.944717,144.851120 174.763947,144.904022 175.713531,145.460861 
	C179.502335,147.682632 181.352264,146.762772 182.471817,142.524246 
	C184.018585,136.668213 189.776733,136.138397 194.932220,134.169342 
	C199.413101,133.195038 203.206238,132.097519 206.999390,131.000000 
	C209.014648,132.987213 210.795029,133.337738 211.639160,130.058716 
	C213.320908,123.525917 215.594681,121.968216 222.267944,122.505730 
	C224.703354,122.701897 227.257004,122.540939 229.614075,121.962097 
	C230.379288,121.774185 230.690903,119.739159 231.444031,118.228867 
	C233.118912,117.272392 234.559769,116.636040 236.000610,115.999695 
	C236.553024,116.514999 237.105453,117.030296 237.763977,118.026199 
	C238.333023,119.173462 238.795975,119.840118 239.258911,120.506783 
	C239.505951,119.671188 239.752975,118.835594 240.000000,118.000000 
	C240.591827,116.522423 241.804688,114.978767 241.655869,113.579994 
	C241.253662,109.799820 243.110641,108.103241 247.034988,107.042519 
	C252.618240,104.913750 257.428101,103.069824 262.779938,105.653015 
	C263.835632,106.162567 265.575592,105.254372 267.000000,105.000000 
	C268.241455,106.143051 269.482910,107.286110 270.752930,109.027443 
	C271.323395,110.925255 271.865295,112.224785 272.407196,113.524323 
	C273.604797,112.682884 274.802399,111.841446 276.000000,111.000008 
	C276.696808,111.861488 278.175262,113.047829 277.972626,113.535484 
	C275.146820,120.334602 281.927643,119.903435 284.672058,121.821312 
	C287.028900,123.468330 287.847931,120.949821 287.108521,118.301025 
	C287.000000,118.000000 287.000000,117.999695 287.000000,117.999695 
	C293.965118,116.297852 296.583496,122.839851 301.250183,125.494293 
	C299.160065,130.344299 301.301117,134.337479 306.907074,135.867828 
	C307.561676,136.046555 308.388580,135.594040 309.135620,135.434158 
	C308.890320,134.426193 308.926147,133.193665 308.339050,132.458740 
	C307.241028,131.084213 305.781769,129.998276 303.809174,128.180817 
	C309.945618,126.179733 311.614014,131.005692 314.292389,132.924240 
	C316.875702,134.774704 319.395844,135.637344 322.181274,136.815094 
	C330.342072,140.265656 340.175171,140.826981 345.754822,149.511993 
	C346.952972,151.376938 350.289459,152.034424 352.766693,152.879105 
	C359.344147,155.121811 365.645660,157.519150 371.783844,161.191711 
	C377.259583,164.467926 382.766785,167.627106 387.807373,171.559372 
	C389.350922,172.763519 390.722412,174.188263 392.510071,175.819946 
	C396.543304,172.995514 399.703613,175.342743 402.278687,178.070541 
	C398.550629,179.474152 394.571289,180.672516 390.914490,182.512100 
	C389.637482,183.154510 388.367249,185.483688 388.550293,186.847061 
	C388.708160,188.023453 390.933197,188.922363 392.772156,190.200592 
	C394.532349,190.637497 395.764709,190.817734 397.042542,191.327667 
	C397.725311,192.771362 398.362610,193.885376 398.725647,195.185623 
	C397.294922,196.653412 396.138458,197.934967 394.981995,199.216537 
	C394.667572,199.354187 394.353119,199.491837 393.785461,199.623596 
	C391.594452,192.544968 390.975159,192.304504 385.348969,196.341125 
	C382.702209,198.240097 380.449768,198.399109 379.070801,194.833969 
	C377.353271,190.393555 374.364685,187.836792 369.611755,186.218124 
	C362.359283,183.748215 356.617950,177.811020 348.682098,176.407898 
	C347.803375,176.252533 346.840332,173.484711 346.847687,171.932922 
	C346.882690,164.549500 346.484589,164.467651 339.025848,163.872467 
	C333.002411,163.391815 326.952057,162.160431 321.167175,160.419571 
	C319.354980,159.874191 317.549927,156.725754 317.186981,154.529938 
	C316.597839,150.965500 315.446869,148.924255 311.631287,149.029465 
	C307.124481,149.153748 302.942322,149.103897 299.429199,145.097122 
	C298.027435,143.498444 294.291351,144.170914 291.916077,143.129410 
	C290.064697,142.317596 287.587952,140.650253 287.292603,139.018555 
	C286.541718,134.870239 284.267334,133.881775 280.658936,133.995865 
	C276.616913,134.123657 272.628113,134.437744 271.198975,128.999893 
	C270.897339,127.852196 267.814972,126.534416 266.259369,126.789879 
	C261.978363,127.492905 257.628296,128.534546 253.668762,130.270584 
	C246.457993,133.432083 239.068207,134.361801 231.299271,134.070221 
	C224.939148,133.831528 224.052963,134.570557 224.091187,140.635315 
	C224.130234,146.831146 218.944489,146.734741 215.462311,148.716476 
	C208.391052,152.740768 201.258926,156.658051 194.157074,160.628738 
	C193.725464,160.870071 193.372894,161.268463 192.926987,161.466278 
	C184.842773,165.052826 176.290207,167.868774 168.813873,172.444336 
	C163.472183,175.713486 157.330902,177.272888 152.541214,180.412033 
	C147.726059,183.567856 143.131592,185.962051 137.729416,187.420044 
	C136.659775,187.708755 135.780807,189.060745 135.024902,190.079010 
	C133.563248,192.047989 132.251801,194.128510 130.878098,196.162796 
	C130.648117,195.667938 130.418137,195.173065 130.188156,194.678207 
	C127.876732,195.247437 125.565300,195.816650 123.126328,196.692871 
M381.610504,180.477219 
	C382.621307,179.969971 383.632111,179.462723 384.642914,178.955429 
	C382.897888,175.929214 381.358917,172.745575 379.255829,169.992905 
	C378.760315,169.344299 376.363892,170.148026 374.841919,170.283646 
	C375.249084,171.753159 375.305725,173.475189 376.141754,174.635788 
	C377.563019,176.608810 379.474976,178.228348 381.610504,180.477219 
M328.958435,144.188324 
	C330.001892,145.231400 331.045380,146.274475 332.088837,147.317566 
	C332.521027,146.519363 332.953217,145.721161 333.385376,144.922958 
	C332.011597,144.507584 330.637848,144.092209 328.958435,144.188324 
M367.899689,165.538803 
	C366.483215,164.230743 365.066711,162.922684 363.650238,161.614624 
	C363.236420,162.274475 362.822601,162.934341 362.408752,163.594208 
	C364.192017,164.410370 365.975250,165.226547 367.899689,165.538803 
M340.147400,149.505249 
	C339.476349,150.107788 338.805267,150.710327 338.134216,151.312851 
	C339.102142,151.579727 340.070099,151.846603 341.037994,152.113480 
	C340.918732,151.291779 340.799469,150.470093 340.147400,149.505249 
M166.449875,156.223740 
	C166.085739,155.794815 165.721603,155.365906 165.357468,154.936981 
	C165.125702,155.458450 164.893921,155.979919 164.662155,156.501389 
	C165.199142,156.550919 165.736115,156.600464 166.449875,156.223740 
z"/>
<path fill="#14DCC2" opacity="1.000000" stroke="none" 
	d="
M354.401611,221.009369 
	C358.383118,214.150345 364.627594,210.520432 373.254242,210.230774 
	C367.386505,213.801895 361.068085,217.367310 354.401611,221.009369 
z"/>
<path fill="#0FDCC8" opacity="1.000000" stroke="none" 
	d="
M398.999878,194.999390 
	C398.362610,193.885376 397.725311,192.771362 397.246094,191.051147 
	C399.934601,189.295624 402.465027,188.146286 404.995483,186.996948 
	C405.746002,186.997971 406.496552,186.998978 407.791077,187.351944 
	C408.620453,189.003937 408.905792,190.303970 409.191132,191.604019 
	C409.191132,191.604019 408.921783,191.638458 408.400940,191.445770 
	C404.920044,192.501846 401.959961,193.750610 398.999878,194.999390 
z"/>
<path fill="#14DCC2" opacity="1.000000" stroke="none" 
	d="
M409.532227,191.551956 
	C408.905792,190.303970 408.620453,189.003937 408.166321,187.352249 
	C408.544861,185.544113 409.092194,184.087616 410.072205,181.479568 
	C411.955750,184.673172 412.937225,186.337280 414.153259,188.314377 
	C412.882935,189.584885 411.378113,190.542389 409.532227,191.551956 
z"/>
<path fill="#14DCC2" opacity="1.000000" stroke="none" 
	d="
M398.725647,195.185623 
	C401.959961,193.750610 404.920044,192.501846 408.325867,191.332626 
	C404.418304,193.970856 400.064972,196.529526 395.346802,199.152374 
	C396.138458,197.934967 397.294922,196.653412 398.725647,195.185623 
z"/>
<path fill="#14DCC2" opacity="1.000000" stroke="none" 
	d="
M376.424561,209.129364 
	C377.687561,205.905334 379.609100,203.099289 384.338531,204.223923 
	C382.052277,205.891312 379.414337,207.478958 376.424561,209.129364 
z"/>
<path fill="#14DCC2" opacity="1.000000" stroke="none" 
	d="
M386.337402,204.049011 
	C388.208038,202.544159 390.424500,200.962341 393.030762,199.440704 
	C391.174774,200.991287 388.929016,202.481674 386.337402,204.049011 
z"/>
<path fill="#14DCC2" opacity="1.000000" stroke="none" 
	d="
M416.319855,187.911942 
	C417.168671,187.039932 418.339600,186.125214 419.884491,185.235748 
	C419.052948,186.130417 417.847473,186.999832 416.319855,187.911942 
z"/>
<path fill="#14DCC2" opacity="1.000000" stroke="none" 
	d="
M353.352631,221.551880 
	C353.355286,221.429749 353.554321,221.302094 353.919861,221.104279 
	C353.974792,221.271729 353.795685,221.442459 353.352631,221.551880 
z"/>
<path fill="#A2A957" opacity="1.000000" stroke="none" 
	d="
M408.779541,296.117615 
	C407.024963,297.369537 404.874054,298.644897 402.385010,300.007507 
	C404.158997,298.776855 406.271118,297.458954 408.779541,296.117615 
z"/>
<path fill="#11DCC4" opacity="1.000000" stroke="none" 
	d="
M266.708191,104.813187 
	C265.575592,105.254372 263.835632,106.162567 262.779938,105.653015 
	C257.428101,103.069824 252.618240,104.913750 247.373611,106.950592 
	C248.961731,101.728424 255.306335,99.070305 260.202850,101.484505 
	C262.284363,102.510788 264.345795,103.577843 266.708191,104.813187 
z"/>
<path fill="#11DCC4" opacity="1.000000" stroke="none" 
	d="
M133.614456,167.021835 
	C133.999893,168.389160 133.999771,169.777725 133.999527,171.582825 
	C132.196365,172.802017 130.456863,173.933960 128.569260,174.298080 
	C127.178116,174.566422 125.593513,173.831879 124.095108,173.544205 
	C124.701469,172.313492 124.990784,170.533905 125.978485,169.963348 
	C128.212234,168.673019 130.790665,167.979385 133.614456,167.021835 
z"/>
<path fill="#14DCC2" opacity="1.000000" stroke="none" 
	d="
M404.935974,186.649597 
	C402.465027,188.146286 399.934601,189.295624 397.200623,190.721466 
	C395.764709,190.817734 394.532349,190.637497 393.149353,190.228027 
	C393.838379,185.561737 396.883301,183.640747 401.025543,183.711761 
	C402.323608,183.734009 403.593597,185.392654 404.935974,186.649597 
z"/>
<path fill="#11DCC4" opacity="1.000000" stroke="none" 
	d="
M206.904205,130.666290 
	C203.206238,132.097519 199.413101,133.195038 195.309662,134.145966 
	C197.448410,132.185974 199.739944,130.052109 202.430374,128.729935 
	C203.394547,128.256119 205.321487,129.741425 206.904205,130.666290 
z"/>
<path fill="#12DCC3" opacity="1.000000" stroke="none" 
	d="
M115.241737,177.601334 
	C115.024780,179.296783 114.748398,182.019165 113.935745,182.189957 
	C112.405067,182.511658 110.565231,181.362381 108.853920,180.824600 
	C109.905525,179.811539 110.841278,178.614243 112.051422,177.853333 
	C112.798141,177.383820 113.963066,177.579453 115.241737,177.601334 
z"/>
<path fill="#11DCC4" opacity="1.000000" stroke="none" 
	d="
M235.899231,115.659676 
	C234.559769,116.636040 233.118912,117.272392 231.338425,117.954979 
	C229.630219,117.759865 228.261658,117.518509 226.624435,117.229774 
	C229.825226,112.507301 232.392105,112.114502 235.899231,115.659676 
z"/>
<path fill="#11DCC4" opacity="1.000000" stroke="none" 
	d="
M146.716507,163.770660 
	C143.510117,167.773956 141.456360,167.699509 138.088196,163.339722 
	C140.810989,163.180542 143.622009,163.361237 146.716507,163.770660 
z"/>
<path fill="#11DCC4" opacity="1.000000" stroke="none" 
	d="
M275.761566,110.751160 
	C274.802399,111.841446 273.604797,112.682884 272.407196,113.524323 
	C271.865295,112.224785 271.323395,110.925255 270.890747,109.312553 
	C272.507721,109.500366 274.015411,110.001343 275.761566,110.751160 
z"/>
<path fill="#11DCC5" opacity="1.000000" stroke="none" 
	d="
M135.571564,177.999390 
	C135.035263,179.233459 134.070541,180.467545 133.105804,181.701614 
	C132.023621,180.661240 130.941452,179.620880 129.929901,178.289948 
	C131.714737,177.999390 133.428940,177.999390 135.571564,177.999390 
z"/>
<path fill="#11DCC5" opacity="1.000000" stroke="none" 
	d="
M287.000000,118.000153 
	C285.239410,117.444733 283.478821,116.889153 281.718231,116.333580 
	C282.009064,115.725380 282.299927,115.117172 282.590759,114.508972 
	C283.963531,115.483131 285.336273,116.457291 286.854523,117.715576 
	C287.000000,117.999695 287.000000,118.000000 287.000000,118.000153 
z"/>
<path fill="#11DCC5" opacity="1.000000" stroke="none" 
	d="
M117.904457,184.291672 
	C118.947960,184.785782 119.894997,185.571579 120.629265,186.774963 
	C119.610107,187.795868 118.803734,188.399155 117.997360,189.002441 
	C117.445381,188.486832 116.893394,187.971237 116.169998,187.228729 
	C116.601723,186.195663 117.204857,185.389511 117.904457,184.291672 
z"/>
<path fill="#11DCC4" opacity="1.000000" stroke="none" 
	d="
M239.666763,117.999947 
	C239.752975,118.835594 239.505951,119.671188 239.258911,120.506783 
	C238.795975,119.840118 238.333023,119.173462 237.935333,118.253250 
	C238.444901,117.999763 238.889206,117.999832 239.666763,117.999947 
z"/>
<path fill="#C8BB3C" opacity="1.000000" stroke="none" 
	d="
M136.161926,314.294098 
	C140.869827,316.488770 145.743546,318.969299 150.834747,321.707764 
	C146.144058,319.503784 141.235901,317.041870 136.161926,314.294098 
z"/>
<path fill="#C8BB3C" opacity="1.000000" stroke="none" 
	d="
M152.110214,322.451050 
	C154.585815,323.538666 157.193863,324.929718 159.994415,326.594299 
	C157.538818,325.496704 154.890747,324.125641 152.110214,322.451050 
z"/>
<path fill="#C8BB3C" opacity="1.000000" stroke="none" 
	d="
M174.126907,334.329224 
	C176.204330,335.158020 178.412247,336.305054 180.844025,337.702148 
	C178.797729,336.850647 176.527557,335.749054 174.126907,334.329224 
z"/>
<path fill="#C8BB3C" opacity="1.000000" stroke="none" 
	d="
M161.142563,327.323578 
	C162.532806,327.837860 164.051346,328.669556 165.763062,329.765503 
	C164.394455,329.233490 162.832657,328.437256 161.142563,327.323578 
z"/>
<path fill="#CDBB32" opacity="1.000000" stroke="none" 
	d="
M354.997437,326.802155 
	C355.876831,325.961243 357.112427,325.069611 358.671631,324.099304 
	C357.781372,324.930847 356.567474,325.841156 354.997437,326.802155 
z"/>
<path fill="#CDBB32" opacity="1.000000" stroke="none" 
	d="
M370.295227,318.144867 
	C371.143738,317.416779 372.251434,316.772766 373.678040,316.062531 
	C372.849457,316.740509 371.701935,317.484711 370.295227,318.144867 
z"/>
<path fill="#C8BB3C" opacity="1.000000" stroke="none" 
	d="
M170.167084,332.292267 
	C170.901352,332.497589 171.808792,332.970459 172.933685,333.668732 
	C172.214188,333.449371 171.277222,333.004608 170.167084,332.292267 
z"/>
<path fill="#CDBB32" opacity="1.000000" stroke="none" 
	d="
M378.196014,314.047516 
	C378.480377,313.709015 378.968658,313.434662 379.727936,313.084595 
	C379.465942,313.376495 378.932953,313.744080 378.196014,314.047516 
z"/>
<path fill="#CDBB32" opacity="1.000000" stroke="none" 
	d="
M362.042877,322.832092 
	C362.064636,322.734344 362.302948,322.520020 362.759705,322.195923 
	C362.731567,322.288513 362.492004,322.498322 362.042877,322.832092 
z"/>
<path fill="#9CA859" opacity="1.000000" stroke="none" 
	d="
M181.217773,307.598145 
	C179.378830,306.805573 177.313889,305.745697 175.129654,304.354767 
	C177.004166,305.126099 178.997955,306.228455 181.217773,307.598145 
z"/>
<path fill="#9CA859" opacity="1.000000" stroke="none" 
	d="
M173.345642,303.603607 
	C172.432709,303.194366 171.326309,302.518188 170.122253,301.526825 
	C171.067108,301.919983 172.109634,302.628326 173.345642,303.603607 
z"/>
<path fill="#5CBF20" opacity="1.000000" stroke="none" 
	d="
M376.167725,240.742798 
	C376.711365,239.962906 377.570160,239.118561 378.731750,238.193298 
	C378.183990,238.967697 377.333466,239.823013 376.167725,240.742798 
z"/>
<path fill="#9CA859" opacity="1.000000" stroke="none" 
	d="
M351.667603,297.247162 
	C351.366211,297.677185 350.783173,298.196045 349.904602,298.811768 
	C350.201355,298.384430 350.793640,297.860229 351.667603,297.247162 
z"/>
<path fill="#9CA859" opacity="1.000000" stroke="none" 
	d="
M348.676575,299.142883 
	C348.344543,299.595001 347.708984,300.148651 346.761475,300.815094 
	C347.090668,300.366730 347.731842,299.805573 348.676575,299.142883 
z"/>
<path fill="#9CA859" opacity="1.000000" stroke="none" 
	d="
M164.309479,298.664124 
	C163.800110,298.488129 163.092468,298.064087 162.210419,297.389221 
	C162.727753,297.564301 163.419479,297.990204 164.309479,298.664124 
z"/>
<path fill="#14DCC2" opacity="1.000000" stroke="none" 
	d="
M162.007416,222.228912 
	C163.593445,219.450989 165.405090,217.315460 168.865967,218.666245 
	C172.715012,220.168549 172.675552,223.261856 171.989883,226.969330 
	C169.523209,226.284332 167.102798,225.209778 164.138367,223.859833 
	C163.076202,223.370407 162.558090,223.156372 162.039963,222.942337 
	C162.039963,222.942337 162.019211,222.466675 162.007416,222.228912 
z"/>
<path fill="#11DDC8" opacity="1.000000" stroke="none" 
	d="
M320.839966,238.711105 
	C319.494171,236.260422 318.208954,233.824738 316.923767,231.389053 
	C317.119873,231.090454 317.315979,230.791855 317.512085,230.493240 
	C319.708099,231.458527 321.904114,232.423798 324.570831,233.595993 
	C323.141785,235.446854 322.177917,236.695267 321.083649,238.278351 
	C320.953278,238.613022 320.900513,238.726105 320.839966,238.711105 
z"/>
<path fill="#4DAC4F" opacity="1.000000" stroke="none" 
	d="
M330.807373,234.786255 
	C331.723389,233.913681 333.020020,233.040054 334.648712,232.111740 
	C333.716522,232.966431 332.452271,233.875824 330.807373,234.786255 
z"/>
<path fill="#4DAC4F" opacity="1.000000" stroke="none" 
	d="
M341.856812,228.800110 
	C342.771332,227.952087 344.050629,227.069153 345.659546,226.129761 
	C344.733337,226.970596 343.477478,227.867920 341.856812,228.800110 
z"/>
<path fill="#14DCC2" opacity="1.000000" stroke="none" 
	d="
M172.493225,227.528870 
	C173.415176,227.748001 174.557602,228.290405 175.958557,229.134964 
	C175.049301,228.908783 173.881500,228.380478 172.493225,227.528870 
z"/>
<path fill="#4DAB4F" opacity="1.000000" stroke="none" 
	d="
M162.115738,223.152466 
	C162.558090,223.156372 163.076202,223.370407 163.795303,223.785034 
	C163.394684,223.777969 162.793106,223.570297 162.115738,223.152466 
z"/>
<path fill="#4DAC4F" opacity="1.000000" stroke="none" 
	d="
M326.700623,236.744934 
	C327.050934,236.315292 327.714111,235.831436 328.687012,235.321503 
	C328.335663,235.760513 327.674561,236.225632 326.700623,236.744934 
z"/>
<path fill="#14DCC2" opacity="1.000000" stroke="none" 
	d="
M160.920624,216.878601 
	C160.967026,216.839020 161.115936,217.100464 161.115936,217.100464 
	C161.115936,217.100464 160.874207,216.918167 160.920624,216.878601 
z"/>
<path fill="#10DDC7" opacity="1.000000" stroke="none" 
	d="
M117.998001,189.335327 
	C118.803734,188.399155 119.610107,187.795868 120.708244,187.096283 
	C124.215469,189.694778 121.909760,192.515274 121.094467,195.649841 
	C120.105743,194.532501 119.211487,193.065018 118.158859,191.298676 
	C117.999886,190.555969 117.999268,190.112091 117.998001,189.335327 
z"/>
<path fill="#10DDC7" opacity="1.000000" stroke="none" 
	d="
M381.395630,180.236816 
	C379.474976,178.228348 377.563019,176.608810 376.141754,174.635788 
	C375.305725,173.475189 375.249084,171.753159 374.841919,170.283646 
	C376.363892,170.148026 378.760315,169.344299 379.255829,169.992905 
	C381.358917,172.745575 382.897888,175.929214 384.642883,178.955444 
	C383.632111,179.462723 382.621307,179.969971 381.395630,180.236816 
z"/>
<path fill="#10DDC7" opacity="1.000000" stroke="none" 
	d="
M329.111267,143.932587 
	C330.637848,144.092209 332.011597,144.507584 333.385376,144.922974 
	C332.953217,145.721161 332.521027,146.519363 332.088837,147.317566 
	C331.045380,146.274475 330.001892,145.231400 329.111267,143.932587 
z"/>
<path fill="#10DDC7" opacity="1.000000" stroke="none" 
	d="
M367.829102,165.790756 
	C365.975250,165.226547 364.192017,164.410370 362.408752,163.594208 
	C362.822601,162.934341 363.236420,162.274475 363.650238,161.614624 
	C365.066711,162.922684 366.483215,164.230743 367.829102,165.790756 
z"/>
<path fill="#10DDC7" opacity="1.000000" stroke="none" 
	d="
M340.413788,149.576813 
	C340.799469,150.470093 340.918732,151.291779 341.038025,152.113480 
	C340.070099,151.846603 339.102142,151.579727 338.134216,151.312851 
	C338.805267,150.710327 339.476349,150.107788 340.413788,149.576813 
z"/>
<path fill="#10DDC7" opacity="1.000000" stroke="none" 
	d="
M166.361481,156.436859 
	C165.736115,156.600464 165.199142,156.550919 164.662155,156.501389 
	C164.893921,155.979919 165.125702,155.458450 165.357468,154.936981 
	C165.721603,155.365906 166.085739,155.794815 166.361481,156.436859 
z"/>
</svg>